<svg width="19" height="19" viewBox="0 0 19 19" fill="none" xmlns="http://www.w3.org/2000/svg">
<path d="M9.57075 18.0813C14.3042 18.0813 18.1415 14.2441 18.1415 9.51057C18.1415 4.77708 14.3042 0.939819 9.57075 0.939819C4.83726 0.939819 1 4.77708 1 9.51057C1 14.2441 4.83726 18.0813 9.57075 18.0813Z" stroke="#2C2C2C" stroke-width="1.1834" stroke-miterlimit="10" stroke-linecap="round" stroke-linejoin="round"/>
<path d="M10.1034 0.939819C12.4702 0.939819 14.3873 4.77698 14.3873 9.51057C14.3873 14.2442 12.4702 18.0813 10.1034 18.0813" stroke="#2C2C2C" stroke-width="1.1834" stroke-miterlimit="10" stroke-linecap="round" stroke-linejoin="round"/>
<path d="M9.02956 0.939819C6.66277 0.939819 4.74567 4.77698 4.74567 9.51057C4.74567 14.2442 6.66277 18.0813 9.02956 18.0813" stroke="#2C2C2C" stroke-width="1.1834" stroke-miterlimit="10" stroke-linecap="round" stroke-linejoin="round"/>
<path d="M9.5708 1.82739V17.1908" stroke="#2C2C2C" stroke-width="1.1834" stroke-miterlimit="10" stroke-linecap="round" stroke-linejoin="round"/>
<path d="M17.2513 9.51056H1.88785" stroke="#2C2C2C" stroke-width="1.1834" stroke-miterlimit="10" stroke-linecap="round" stroke-linejoin="round"/>
</svg>
