<svg width="16" height="19" viewBox="0 0 16 19" fill="none" xmlns="http://www.w3.org/2000/svg">
<path d="M13.8884 17.9423H1.84735C1.44204 17.9423 1.11069 17.6139 1.11069 17.2056V7.33017C1.11069 6.92486 1.43908 6.59351 1.84735 6.59351H13.8884C14.2937 6.59351 14.6251 6.9219 14.6251 7.33017V17.2056C14.6221 17.6109 14.2937 17.9423 13.8884 17.9423Z" stroke="#2C2C2C" stroke-width="1.1834" stroke-miterlimit="10" stroke-linecap="round" stroke-linejoin="round"/>
<path d="M11.4978 6.10237V4.69709C11.4978 2.69123 9.87363 1.06702 7.86777 1.06702C5.86191 1.06702 4.2377 2.69123 4.2377 4.69709V6.10237" stroke="#2C2C2C" stroke-width="1.1834" stroke-miterlimit="10" stroke-linecap="round" stroke-linejoin="round"/>
<path d="M9.25282 11.3685C9.25282 11.9957 8.83567 12.5282 8.26468 12.6969V15.4216H7.46589V12.6969C6.8949 12.5282 6.47775 11.9957 6.47775 11.3685C6.47775 10.6022 7.09904 9.98096 7.86529 9.98096C8.63154 9.98096 9.25282 10.6022 9.25282 11.3685Z" stroke="#2C2C2C" stroke-width="1.1834" stroke-miterlimit="10" stroke-linecap="round" stroke-linejoin="round"/>
</svg>
