<svg width="20" height="19" viewBox="0 0 20 19" fill="none" xmlns="http://www.w3.org/2000/svg">
<path d="M12.8931 7.37555C12.8931 9.00272 14.2126 10.3222 15.8398 10.3222C17.467 10.3222 18.7865 9.00272 18.7865 7.37555L16.3694 1H3.41708L1 7.37555C1 9.00272 2.31949 10.3222 3.94666 10.3222C5.57383 10.3222 6.89331 9.00272 6.89331 7.37555" stroke="#2C2C2C" stroke-width="1.1834" stroke-miterlimit="10" stroke-linecap="round" stroke-linejoin="round"/>
<path d="M12.7901 7.37558C12.7901 9.00275 11.4706 10.3222 9.84345 10.3222C8.21627 10.3222 6.89679 9.00275 6.89679 7.37558" stroke="#2C2C2C" stroke-width="1.1834" stroke-miterlimit="10" stroke-linecap="round" stroke-linejoin="round"/>
<path d="M7.40814 17.6031V14.6535C7.40814 13.3074 8.49982 12.2186 9.84298 12.2186C11.1891 12.2186 12.2778 13.3103 12.2778 14.6535V17.6031" stroke="#2C2C2C" stroke-width="1.1834" stroke-miterlimit="10" stroke-linecap="round" stroke-linejoin="round"/>
<path d="M18.494 8.84891V16.7155C18.494 17.2066 18.0975 17.6031 17.6064 17.6031H2.08024C1.58913 17.6031 1.19269 17.2066 1.19269 16.7155V8.84891" stroke="#2C2C2C" stroke-width="1.1834" stroke-miterlimit="10" stroke-linecap="round" stroke-linejoin="round"/>
</svg>
