<svg width="52" height="67" viewBox="0 0 52 67" fill="none" xmlns="http://www.w3.org/2000/svg">
<path d="M24.615 1.97794L15.2658 1.54922C15.2268 1.35678 15.1733 1.17896 15.1051 1.01331C15.0515 0.8769 14.9906 0.750231 14.9199 0.635742L24.2691 1.15216C24.3641 1.29832 24.4469 1.4664 24.5175 1.6564C24.5541 1.75871 24.5882 1.86589 24.615 1.97794Z" fill="#292929"/>
<path d="M38.4387 22.0818C38.4387 22.0818 39.3351 25.726 40.7139 30.1788C42.0902 34.6317 49.169 32.4053 50.3943 32.1739" stroke="black" stroke-width="3.21593" stroke-miterlimit="10" stroke-linecap="round" stroke-linejoin="round"/>
<path d="M15.329 1.97555C15.4215 3.06928 15.0196 4.00956 14.4228 4.1411C14.3936 4.14597 14.3643 4.15084 14.3351 4.15328C13.6871 4.2093 13.0855 3.32262 12.988 2.17529C12.8906 1.0304 13.3339 0.0560266 13.9819 0L14.1743 0.0121797C14.7443 0.126669 15.2413 0.945144 15.329 1.97555Z" fill="black"/>
<path d="M14.7835 2.02182C14.8298 2.57478 14.6422 3.05222 14.3523 3.16427C14.2841 3.16184 14.2135 3.16671 14.1453 3.17645C13.7531 3.22274 13.3926 3.40056 13.1125 3.69531C12.7714 4.05339 12.6058 4.52596 12.6472 5.01802L13.1587 11.0518L11.8506 11.1639L11.2343 3.87313C11.1491 2.86709 11.6314 2.01451 12.3865 1.50296C12.8689 1.2204 13.4096 1.04501 13.9699 0.988981C14.0381 0.981673 14.1063 0.974365 14.177 0.974365C14.4766 1.04014 14.7372 1.47617 14.7835 2.02182Z" fill="#292929"/>
<path d="M12.3865 1.50537C11.6314 2.01692 11.1491 2.8695 11.2343 3.87554L11.8531 11.1639L10.9761 11.2394L10.4646 5.20556C10.3696 4.09721 10.7569 2.9986 11.5218 2.18987C11.78 1.91461 12.0699 1.68807 12.3865 1.50537Z" fill="black"/>
<path d="M26.2152 5.02279L26.6878 10.5816L25.8401 10.718L25.3821 5.32728C25.3334 4.74996 24.9997 4.2579 24.5247 3.98751C24.6172 3.76341 24.683 3.50033 24.7098 3.21045C25.538 3.43943 26.1421 4.15803 26.2152 5.02279Z" fill="black"/>
<path d="M27.5671 5.13989L28.0494 10.8302L25.8644 11.0154L25.84 10.7158L26.6878 10.5793L26.2152 5.02053C26.1421 4.15577 25.538 3.43717 24.7122 3.20819C24.7341 3.00113 24.7341 2.78433 24.7146 2.55779C24.6878 2.22894 24.6172 1.92201 24.5149 1.65649C26.1567 2.01458 27.421 3.41281 27.5671 5.13989Z" fill="#292929"/>
<path d="M14.1746 0.012207L23.3678 0.579781C23.3702 0.579781 23.3702 0.579781 23.3727 0.579781C23.704 0.555422 24.0231 0.774656 24.2667 1.15223L14.92 0.633372C14.7202 0.294776 14.4571 0.0682336 14.1746 0.012207Z" fill="black"/>
<path d="M24.7147 2.5578C24.761 3.09857 24.6855 3.60281 24.5247 3.98526C24.3469 4.41885 24.0594 4.70386 23.7208 4.73309C23.6916 4.73553 23.6648 4.73065 23.6356 4.73065L23.5503 4.72578C23.5479 4.72578 23.5454 4.72335 23.543 4.72335L14.4229 4.14116C14.7712 4.06564 15.0538 3.71243 15.2072 3.2155C15.3217 2.86229 15.368 2.43113 15.329 1.97561C15.3168 1.82701 15.2949 1.68573 15.2657 1.54932L24.6148 1.97804C24.6635 2.1583 24.6976 2.35318 24.7147 2.5578Z" fill="black"/>
<path d="M40.0198 55.6271L34.02 56.1996L33.813 54.2411L38.5655 53.9658C39.1672 54.358 39.6544 54.9426 40.0198 55.6271Z" fill="black"/>
<path d="M40.6726 60.0482C40.2146 62.1285 39.0478 62.791 39.0478 62.791L34.5803 63.2904L34.6923 62.5475L34.02 56.1994L40.0197 55.627C40.731 56.9618 40.9771 58.6719 40.6726 60.0482Z" fill="#292929"/>
<path d="M14.7835 58.0337L8.78382 58.6061L8.62305 56.426L13.2854 55.9607C13.2854 55.9631 14.1843 56.7694 14.7835 58.0337Z" fill="black"/>
<path d="M15.2487 63.8775C14.8321 65.1734 14.0575 65.6387 14.0575 65.6387L9.4487 66.1527L9.27331 65.2489L8.78369 58.6061L14.7834 58.0337C14.8394 58.1482 14.8906 58.2675 14.9417 58.3893C15.5312 59.8509 15.6652 62.584 15.2487 63.8775Z" fill="#292929"/>
<path d="M36.5096 58.5697C36.7215 61.069 35.8568 63.1834 34.5803 63.2906C33.3039 63.4002 32.0957 61.4612 31.8838 58.9619C31.6718 56.4626 32.5366 54.3482 33.813 54.2411C35.0895 54.1339 36.2977 56.0705 36.5096 58.5697Z" fill="black"/>
<path d="M35.4841 58.5915C35.6132 60.1067 35.1382 61.3855 34.422 61.4464C33.7083 61.5073 33.0238 60.3283 32.8947 58.8132C32.7656 57.298 33.2406 56.0191 33.9568 55.9582C34.6729 55.8949 35.355 57.0739 35.4841 58.5915Z" fill="#292929"/>
<path d="M11.3513 61.0908C11.5802 63.7776 10.7277 66.0406 9.45123 66.1503C8.17479 66.2599 6.95195 64.1698 6.72541 61.483C6.49643 58.7962 7.34901 56.5332 8.62544 56.4236C9.90188 56.3139 11.1223 58.4064 11.3513 61.0908Z" fill="black"/>
<path d="M10.3257 61.108C10.4646 62.7377 9.99688 64.1067 9.28315 64.1676C8.56942 64.2285 7.87761 62.9569 7.73876 61.3273C7.59992 59.6976 8.06762 58.3286 8.78135 58.2677C9.49508 58.2068 10.1869 59.4784 10.3257 61.108Z" fill="#292929"/>
<path d="M16.5664 56.0778L6.72033 56.6722C4.78375 56.7891 3.10783 55.3397 2.94462 53.408L2.41846 47.2012L14.9928 45.7007L15.5238 45.7859L16.5664 56.0778Z" fill="#10105B"/>
<path d="M15.5238 45.7858L14.9928 45.7005L2.41849 47.201L0.0166575 18.8881C-0.144115 16.9856 0.905775 15.1879 2.6426 14.3914L11.9114 10.1553L15.5238 45.7858Z" fill="#DD1905"/>
<path d="M40.4191 13.6801L42.9817 43.8638L41.2911 43.9832C40.5214 44.0392 39.9441 44.7115 40.0098 45.4813L40.2997 48.8964C40.3582 49.5882 39.8466 50.1972 39.1597 50.2581L17.7697 52.146C17.0755 52.2069 16.4641 51.6953 16.4056 51.0011L16.0767 47.1255C16.0134 46.3704 15.3557 45.8077 14.6006 45.8613L12.3059 46.022L9.58496 13.9724C9.39496 11.7411 11.1756 9.83615 13.4118 9.86782L36.7043 10.2162C38.6506 10.2478 40.2559 11.7435 40.4191 13.6801Z" fill="#FF4200"/>
<path d="M32.0153 50.8892L28.5246 55.0279L16.9758 56.0607C14.8858 56.2483 13.0442 54.699 12.8664 52.6139L12.3062 46.0222L14.6008 45.8614C15.3559 45.8079 16.0137 46.3706 16.077 47.1257L16.4058 51.0013C16.4643 51.6955 17.0757 52.2095 17.77 52.1462L32.0153 50.8892Z" fill="#25258C"/>
<path d="M42.982 43.8662L43.4935 49.9073C43.6689 51.9828 42.1367 53.8122 40.0588 53.9973L28.5222 55.0277L32.0129 50.889L39.1575 50.2581C39.8469 50.1972 40.3584 49.5882 40.2975 48.8964L40.0077 45.4812C39.9419 44.7115 40.5192 44.0392 41.289 43.9831L42.982 43.8662Z" fill="#00A9EA"/>
<path d="M32.723 49.0536C34.1231 47.3939 33.9126 44.9133 32.2528 43.5132C30.593 42.1131 28.1124 42.3237 26.7123 43.9834C25.3122 45.6432 25.5228 48.1238 27.1826 49.5239C28.8424 50.924 31.3229 50.7134 32.723 49.0536Z" fill="white"/>
<path d="M30.7072 45.3423L30.9703 48.4505C30.9946 48.7307 30.7876 48.9767 30.5074 48.9986L27.3992 49.2617L30.7072 45.3423Z" fill="#25258C"/>
<path d="M32.0299 43.7737L31.1481 44.8187L27.5332 45.1256L28.1885 44.3486C28.3322 44.178 28.5392 44.0709 28.7634 44.0514L32.0299 43.7737Z" fill="#FF4200"/>
<path d="M32.0298 43.7737L32.3075 47.0378C32.3269 47.2619 32.2563 47.4836 32.1101 47.6541L31.4549 48.4312L31.1479 44.8163L32.0298 43.7737Z" fill="#00A9EA"/>
<path d="M30.7071 45.3423L27.3991 49.2641L27.136 46.1559C27.1116 45.8758 27.3187 45.6297 27.5988 45.6078L30.7071 45.3423Z" fill="#FF4200"/>
<path d="M33.1187 25.8014C35.1284 25.7746 36.6923 24.05 36.5217 22.0476L36.3098 19.563C36.1564 17.7701 34.6558 16.3914 32.8557 16.3938C30.8314 16.3987 29.2432 18.1306 29.4137 20.1476L29.6256 22.6322C29.7791 24.4421 31.304 25.8258 33.1187 25.8014Z" fill="#FF703F"/>
<path d="M21.397 26.1766L21.5724 26.1742C23.6405 26.1547 25.2531 24.3814 25.0777 22.3206L24.8415 19.5436C24.688 17.7239 23.1777 16.3184 21.3508 16.2916L21.1729 16.2892C19.0732 16.2599 17.407 18.0479 17.5848 20.1428L17.8211 22.9222C17.9794 24.7784 19.5384 26.1961 21.397 26.1766Z" fill="#FF703F"/>
<path d="M33.0675 25.1974C35.0771 25.1706 36.641 23.446 36.4705 21.4436L36.2586 18.959C36.1051 17.1661 34.6045 15.7874 32.8044 15.7898C30.7801 15.7947 29.1919 17.5266 29.3624 19.5436L29.5743 22.0282C29.7278 23.8381 31.2527 25.2218 33.0675 25.1974Z" fill="white"/>
<path d="M21.3433 25.5553L21.5187 25.5529C23.5868 25.5334 25.1994 23.76 25.024 21.6992L24.7878 18.9222C24.6343 17.1026 23.124 15.6971 21.2971 15.6703L21.1192 15.6678C19.0194 15.6386 17.3533 17.4266 17.5311 19.5215L17.7674 22.3009C17.9281 24.1571 19.4847 25.5748 21.3433 25.5553Z" fill="white"/>
<path d="M24.9071 20.3863C25.0751 22.374 23.6014 24.123 21.6137 24.2911C19.6259 24.4592 17.8769 22.9854 17.7089 20.9977C17.5408 19.01 19.0145 17.261 21.0023 17.0929C22.99 16.9248 24.739 18.3986 24.9071 20.3863Z" fill="black"/>
<path d="M36.5226 20.7108C36.6417 18.7193 35.1238 17.0083 33.1323 16.8892C31.1408 16.7701 29.4297 18.288 29.3106 20.2795C29.1915 22.271 30.7094 23.9821 32.701 24.1012C34.6925 24.2203 36.4035 22.7024 36.5226 20.7108Z" fill="black"/>
<path d="M35.2185 29.8158C35.445 32.488 34.1491 34.9313 32.0591 36.2978C31.1164 36.919 30.0105 37.3161 28.8095 37.4184C28.7316 37.4257 28.6561 37.4306 28.5781 37.4354C25.8718 37.5791 23.4359 36.1712 22.1448 33.9788C21.626 33.097 21.2898 32.0885 21.1972 31.0045L21.1388 30.3079C21.1047 29.9011 21.4189 29.5503 21.8257 29.5381L34.4901 29.1654C34.8702 29.1532 35.1868 29.4407 35.2185 29.8158Z" fill="black"/>
<path d="M32.0591 36.2761L32.0615 36.298C31.1188 36.9192 30.0129 37.3162 28.8119 37.4185C28.734 37.4258 28.6585 37.4307 28.5805 37.4356C25.8742 37.5793 23.4383 36.1713 22.1472 33.979C23.1192 33.2872 24.4102 32.8097 25.8547 32.6879C29.0896 32.4127 31.8666 34.018 32.0591 36.2761Z" fill="#FA0E24"/>
<path d="M34.5169 29.6527C34.629 29.6527 34.724 29.7428 34.7337 29.8573C34.9384 32.2592 33.8105 34.5709 31.7936 35.8912C30.8947 36.4807 29.8497 36.8436 28.7706 36.9337C28.6975 36.941 28.6293 36.9459 28.5562 36.9484C28.4393 36.9557 28.3224 36.9581 28.2054 36.9581C25.901 36.9581 23.7404 35.7206 22.5662 33.7305C22.0644 32.8803 21.7697 31.9498 21.6844 30.9633L21.626 30.2666C21.6187 30.1837 21.6576 30.1277 21.682 30.1009C21.7063 30.0741 21.7599 30.0278 21.8428 30.0254L34.5096 29.6527H34.5169ZM34.5169 29.1655C34.5096 29.1655 34.5023 29.1655 34.4926 29.1655L21.8281 29.5382C21.4213 29.5504 21.1071 29.9012 21.1412 30.308L21.1997 31.0047C21.2922 32.0887 21.626 33.0947 22.1472 33.9789C23.3798 36.069 25.6501 37.4453 28.2054 37.4453C28.3297 37.4453 28.4563 37.4428 28.583 37.4355C28.661 37.4307 28.7365 37.4258 28.8144 37.4185C30.0153 37.3162 31.1213 36.9167 32.064 36.298C34.154 34.9314 35.4499 32.4906 35.2234 29.8159C35.1893 29.4481 34.8823 29.1655 34.5169 29.1655Z" fill="black"/>
<path d="M16.7736 34.6121C16.7736 34.6121 11.5631 39.9761 6.92755 35.9422C2.29195 31.9083 4.80828 27.1436 4.80828 27.1436" stroke="black" stroke-width="3.21593" stroke-miterlimit="10" stroke-linecap="round" stroke-linejoin="round"/>
<path d="M33.5498 20.2669C33.6765 20.6177 33.4938 21.0025 33.1455 21.1292C32.7947 21.2559 32.4098 21.0732 32.2831 20.7248C32.1565 20.3741 32.3392 19.9892 32.6875 19.8625C33.0383 19.7334 33.4232 19.9161 33.5498 20.2669Z" fill="white"/>
<path d="M35.976 17.8236C36.2562 18.6055 35.8518 19.4654 35.0699 19.7456C34.2879 20.0257 33.428 19.6213 33.1479 18.8394C32.8678 18.0574 33.2721 17.1976 34.0541 16.9174C34.8336 16.6373 35.6935 17.0417 35.976 17.8236Z" fill="white"/>
<path d="M31.8082 19.4045C31.8618 19.5507 31.7838 19.7139 31.6377 19.7651L31.4014 19.8503L31.4866 20.0866C31.5402 20.2328 31.4647 20.396 31.3161 20.4496C31.17 20.5032 31.0068 20.4252 30.9556 20.279L30.8704 20.0428L30.6341 20.128C30.4879 20.1816 30.3247 20.1037 30.2735 19.9575C30.22 19.8113 30.2979 19.6481 30.4441 19.597L30.6803 19.5117L30.5951 19.273C30.5415 19.1268 30.6195 18.9636 30.7656 18.9125C30.9142 18.8589 31.075 18.9344 31.1286 19.083L31.2138 19.3217L31.4501 19.2365C31.5938 19.1804 31.7546 19.256 31.8082 19.4045Z" fill="white"/>
<path d="M22.0254 20.698C22.1521 21.0488 21.9694 21.4337 21.6211 21.5604C21.2703 21.687 20.8854 21.5043 20.7587 21.156C20.6321 20.8052 20.8148 20.4203 21.1631 20.2937C21.5139 20.167 21.9012 20.3473 22.0254 20.698Z" fill="white"/>
<path d="M24.4516 18.255C24.7317 19.0369 24.3274 19.8968 23.5454 20.1769C22.7635 20.4571 21.9036 20.0527 21.6235 19.2708C21.3433 18.4888 21.7477 17.629 22.5297 17.3488C23.3092 17.0687 24.1715 17.4731 24.4516 18.255Z" fill="white"/>
<path d="M20.2838 19.8357C20.3374 19.9819 20.2594 20.1451 20.1133 20.1962L19.877 20.2815L19.9622 20.5178C20.0158 20.6639 19.9403 20.8271 19.7917 20.8807C19.6456 20.9343 19.4823 20.8564 19.4312 20.7102L19.3459 20.4739L19.1096 20.5592C18.9635 20.6128 18.8003 20.5348 18.7491 20.3887C18.6955 20.2425 18.7735 20.0793 18.9196 20.0281L19.1559 19.9429L19.0707 19.7042C19.0171 19.558 19.095 19.3948 19.2412 19.3436C19.3898 19.29 19.5506 19.3656 19.6041 19.5142L19.6894 19.7529L19.9257 19.6676C20.0694 19.6116 20.2326 19.6895 20.2838 19.8357Z" fill="white"/>
</svg>
