<svg width="93" height="126" viewBox="0 0 93 126" fill="none" xmlns="http://www.w3.org/2000/svg">
<path d="M24.9546 57.1025C24.9546 57.1025 20.0509 69.5455 11.1936 68.5676C2.33631 67.5897 3.96622 53.4934 3.9569 51.1138" stroke="#FF4200" stroke-width="6.14795" stroke-miterlimit="10" stroke-linecap="round" stroke-linejoin="round"/>
<path d="M60.3 4.54068C60.3 6.64091 61.2174 8.36394 62.3769 8.51761C62.4328 8.52227 62.4887 8.52693 62.5446 8.52693C63.788 8.52693 64.7892 6.74336 64.7892 4.54068C64.7892 2.34265 63.788 0.559082 62.5446 0.559082L62.1814 0.614964C61.1149 0.922315 60.3 2.56152 60.3 4.54068Z" fill="black"/>
<path d="M62.7495 6.63619C62.6191 6.62688 62.484 6.63154 62.3536 6.64551C62.3862 6.65482 62.4235 6.65948 62.4561 6.66413C62.484 6.66879 62.5166 6.66879 62.5446 6.66879C62.6144 6.66879 62.6843 6.65948 62.7495 6.63619Z" fill="black"/>
<path d="M62.335 2.44959C62.4701 2.44028 62.6005 2.44028 62.7309 2.44493C62.6703 2.42631 62.6098 2.41699 62.5446 2.41699L62.349 2.44493C62.3443 2.44493 62.3397 2.44959 62.335 2.44959Z" fill="black"/>
<path d="M62.1813 0.614964L62.5446 0.559082C62.4188 0.559082 62.2978 0.577709 62.1813 0.614964Z" fill="black"/>
<path d="M61.3478 4.54053C61.3478 5.60229 61.7855 6.48243 62.3537 6.64542C62.484 6.63145 62.6191 6.62679 62.7495 6.63611C63.5039 6.65939 64.221 6.94346 64.7985 7.45571C65.5063 8.08438 65.8975 8.95521 65.8975 9.90055V21.4774H68.4075V7.49296C68.4075 5.56503 67.3504 4.01896 65.8277 3.16676C64.8637 2.70574 63.8066 2.45892 62.7309 2.44495C62.6005 2.4403 62.4701 2.4403 62.335 2.44961C61.7715 2.62191 61.3478 3.49274 61.3478 4.54053Z" fill="#292929"/>
<path d="M65.8276 3.16699C67.3504 4.01919 68.4075 5.56526 68.4075 7.49319V21.4777H70.0886V9.90078C70.0886 7.7726 69.1759 5.74222 67.5879 4.32654C67.0524 3.85155 66.461 3.46503 65.8276 3.16699Z" fill="black"/>
<path d="M40.0567 12.1033V22.7674L41.6913 22.8885V12.5457C41.6913 11.4374 42.2454 10.4455 43.1069 9.85404C42.8927 9.44424 42.7251 8.95061 42.6273 8.40576C41.0905 8.97855 40.0567 10.4455 40.0567 12.1033Z" fill="black"/>
<path d="M37.5001 12.5456V23.4613H41.6913V22.8885L40.0567 22.7674V12.1032C40.0567 10.4454 41.0905 8.97849 42.6273 8.4057C42.5528 8.01453 42.5155 7.60007 42.5155 7.16699C42.5155 6.53831 42.5994 5.94224 42.7484 5.41602C39.6795 6.36601 37.5001 9.22996 37.5001 12.5456Z" fill="#292929"/>
<path d="M62.1814 0.615234L44.7602 3.18115C44.7555 3.18115 44.7555 3.18115 44.7508 3.18115C44.1175 3.18581 43.5447 3.65615 43.1396 4.41521L60.8635 1.91915C61.1895 1.23925 61.6552 0.764253 62.1814 0.615234Z" fill="black"/>
<path d="M42.5156 7.16751C42.5156 8.20599 42.7391 9.15132 43.107 9.85451C43.5168 10.6508 44.1083 11.1491 44.7602 11.1491C44.8161 11.1491 44.8673 11.1351 44.9232 11.1305L45.0862 11.1072C45.0908 11.1072 45.0955 11.1025 45.1002 11.1025L62.377 8.51799C61.7018 8.42951 61.1057 7.8055 60.7332 6.88344C60.4584 6.22683 60.3001 5.41654 60.3001 4.54106C60.3001 4.25699 60.3187 3.98224 60.3513 3.7168L42.6134 6.04521C42.5482 6.39913 42.5156 6.77634 42.5156 7.16751Z" fill="black"/>
<path d="M21.9417 110.731L33.4627 110.852L33.5418 107.089L24.4424 107.331C23.362 108.174 22.5284 109.366 21.9417 110.731Z" fill="#10105B"/>
<path d="M21.4107 119.257C22.6215 123.146 24.9499 124.221 24.9499 124.221L33.5418 124.45L33.2065 123.052L33.4626 110.852L21.9416 110.73C20.8007 113.39 20.6098 116.687 21.4107 119.257Z" fill="#25258C"/>
<path d="M70.4007 111.233L81.9217 111.354L81.8751 107.177L72.92 107.047C72.92 107.047 71.3414 108.728 70.4007 111.233Z" fill="#10105B"/>
<path d="M70.4612 122.442C71.4624 124.845 73.0131 125.604 73.0131 125.604L81.8751 125.837L82.0614 124.086L81.9217 111.354L70.4006 111.233C70.3122 111.462 70.233 111.694 70.1585 111.937C69.2737 114.819 69.46 120.044 70.4612 122.442Z" fill="#25258C"/>
<path d="M33.5418 124.45C35.9928 124.45 37.9797 120.563 37.9797 115.769C37.9797 110.975 35.9928 107.089 33.5418 107.089C31.0908 107.089 29.1038 110.975 29.1038 115.769C29.1038 120.563 31.0908 124.45 33.5418 124.45Z" fill="#10105B"/>
<path d="M33.5419 120.91C34.9127 120.91 36.0239 118.552 36.0239 115.643C36.0239 112.735 34.9127 110.376 33.5419 110.376C32.171 110.376 31.0598 112.735 31.0598 115.643C31.0598 118.552 32.171 120.91 33.5419 120.91Z" fill="#25258C"/>
<path d="M81.8751 125.837C84.3261 125.837 86.3131 121.659 86.3131 116.505C86.3131 111.351 84.3261 107.173 81.8751 107.173C79.4241 107.173 77.4371 111.351 77.4371 116.505C77.4371 121.659 79.4241 125.837 81.8751 125.837Z" fill="#10105B"/>
<path d="M81.8751 122.028C83.2459 122.028 84.3572 119.495 84.3572 116.37C84.3572 113.245 83.2459 110.712 81.8751 110.712C80.5043 110.712 79.393 113.245 79.393 116.37C79.393 119.495 80.5043 122.028 81.8751 122.028Z" fill="#25258C"/>
<path d="M66.6892 107.797L85.5401 107.336C89.2469 107.247 92.204 104.215 92.204 100.509V88.6011L68.0071 87.7769L67.0105 88.0237L66.6892 107.797Z" fill="#49CDFF"/>
<path d="M67.0105 88.0238L68.0071 87.777L92.204 88.6013V34.2793C92.204 30.6283 89.9128 27.3732 86.4761 26.1392L68.1328 19.5684L67.0105 88.0238Z" fill="#292929"/>
<path d="M73.1808 26.4652V87.9541L68.7801 88.0193C67.3365 88.0379 66.1769 89.2161 66.1769 90.6644V98.1013C66.1769 99.4332 65.0919 100.509 63.7647 100.504L22.7147 100.365C21.3922 100.36 20.3211 99.2842 20.3211 97.957V91.4048C20.3211 89.9286 19.1103 88.7411 17.6387 88.7597L14.3976 88.8063V30.8939C14.3976 27.1777 17.215 24.067 20.9125 23.6944L65.2269 19.2658C69.4833 18.842 73.1808 22.1856 73.1808 26.4652Z" fill="black"/>
<path d="M43.7776 100.434L36.5129 107.699L21.6017 107.634C17.6155 107.615 14.3976 104.379 14.3976 100.397V88.8061L17.6387 88.7595C19.1103 88.7409 20.3211 89.9284 20.3211 91.4046V97.9567C20.3211 99.2839 21.3922 100.36 22.7147 100.364L43.7776 100.434Z" fill="#FF4200"/>
<path d="M73.1808 87.9541V100.602C73.1808 104.607 69.921 107.853 65.9115 107.834L36.5129 107.699L43.7775 100.434L63.7647 100.504C65.0919 100.509 66.1769 99.4332 66.1769 98.1013V90.6644C66.1769 89.2161 67.3365 88.0379 68.7801 88.0193L73.1808 87.9541Z" fill="#00A9EA"/>
<path d="M42.6133 6.0449L60.3512 3.71648C60.3931 3.34394 60.4676 2.99467 60.5701 2.6687C60.6493 2.3986 60.7471 2.14713 60.8635 1.91895L43.1396 4.41501C42.9812 4.70839 42.8508 5.04368 42.7484 5.41623C42.6925 5.61647 42.6459 5.82603 42.6133 6.0449Z" fill="#292929"/>
<path d="M40.1219 99.2329C44.2729 99.2329 47.638 95.8679 47.638 91.7168C47.638 87.5658 44.2729 84.2007 40.1219 84.2007C35.9709 84.2007 32.6058 87.5658 32.6058 91.7168C32.6058 95.8679 35.9709 99.2329 40.1219 99.2329Z" fill="white"/>
<path d="M42.2034 89.6348V95.6002C42.2034 96.1357 41.7704 96.5688 41.2348 96.5688H35.2694L42.2034 89.6348Z" fill="#25258C"/>
<path d="M44.9789 86.8594L43.1301 88.7081H36.1961L37.5699 87.3344C37.8726 87.0317 38.287 86.8594 38.7155 86.8594H44.9789Z" fill="#FF4200"/>
<path d="M44.9789 86.8594V93.1228C44.9789 93.5512 44.8066 93.9657 44.5039 94.2684L43.1301 95.6422V88.7081L44.9789 86.8594Z" fill="#00A9EA"/>
<path d="M42.2034 89.6348L35.2694 96.5688V90.6034C35.2694 90.0679 35.7025 89.6348 36.238 89.6348H42.2034Z" fill="#FF4200"/>
<path d="M82.8484 54.0708C82.8484 54.0708 85.7263 67.4452 77.0879 69.918C68.4495 72.3908 64.5377 58.7416 63.611 56.5436" stroke="#FF4200" stroke-width="6.14795" stroke-miterlimit="10" stroke-linecap="round" stroke-linejoin="round"/>
<path d="M32.3776 40.482V47.2437C32.3776 48.3846 31.4975 49.3346 30.3566 49.4138C29.0946 49.5023 28.0235 48.5057 28.0235 47.2437V40.482C28.0235 39.3504 28.8943 38.405 30.0213 38.3119C31.2879 38.2095 32.3776 39.2107 32.3776 40.482Z" fill="#292929"/>
<path d="M53.1471 38.8101V45.8372C53.1471 46.9735 52.2716 47.9235 51.1354 48.0073C49.8734 48.1051 48.793 47.1039 48.793 45.8372V38.8101C48.793 37.6924 49.6405 36.7564 50.7535 36.6446C52.0341 36.5143 53.1471 37.5248 53.1471 38.8101Z" fill="#292929"/>
<path d="M51.8711 58.8347C51.941 58.8347 52.0015 58.8952 52.0015 58.9651V64.9864C52.0015 68.1623 49.5148 70.7422 46.3388 70.8586L35.7585 71.2452C35.684 71.2498 35.6094 71.2498 35.5396 71.2498C32.3031 71.2498 29.6673 68.614 29.6673 65.3729V60.0362C29.6673 59.9663 29.7232 59.9104 29.7931 59.9058L51.8665 58.83L51.8711 58.8347ZM51.8711 57.9033C51.8525 57.9033 51.8339 57.9033 51.8199 57.9033L29.7465 58.979C29.183 59.007 28.736 59.4727 28.736 60.0408V65.3775C28.736 69.1496 31.7955 72.1858 35.5396 72.1858C35.6234 72.1858 35.7072 72.1858 35.7911 72.1812L46.3714 71.7947C50.0317 71.6596 52.9282 68.656 52.9282 64.991V58.9697C52.9329 58.3737 52.4532 57.9033 51.8711 57.9033Z" fill="white"/>
<path d="M32.3776 39.3318V46.0935C32.3776 47.2344 31.4975 48.1844 30.3566 48.2636C29.0946 48.352 28.0235 47.3555 28.0235 46.0935V39.3318C28.0235 38.2001 28.8943 37.2548 30.0213 37.1617C31.2879 37.0546 32.3776 38.0558 32.3776 39.3318Z" fill="white"/>
<path d="M53.1471 37.6602V44.6874C53.1471 45.8237 52.2716 46.7736 51.1354 46.8575C49.8734 46.9553 48.793 45.954 48.793 44.6874V37.6602C48.793 36.5426 49.6405 35.6066 50.7535 35.4948C52.0341 35.3644 53.1471 36.3703 53.1471 37.6602Z" fill="white"/>
</svg>
