<svg width="22" height="20" viewBox="0 0 22 20" fill="none" xmlns="http://www.w3.org/2000/svg">
<g clip-path="url(#clip0_1613_20055)">
<path d="M21.0409 6.43844V16.3643C21.0409 17.691 19.9668 18.7651 18.6402 18.7651H3.35654C2.03309 18.7651 0.958984 17.691 0.958984 16.3675V6.43524C0.958984 5.11179 2.03309 4.03769 3.35654 4.03769H4.34434C4.66401 4.03769 4.96131 3.88104 5.14352 3.62211L6.61722 1.51226C6.79944 1.25332 7.09673 1.09668 7.41641 1.09668H14.5803C14.8968 1.09668 15.1973 1.25332 15.3795 1.51226L16.8564 3.62211C17.0386 3.88424 17.3359 4.03769 17.6556 4.03769H18.6402C19.9668 4.03769 21.0409 5.11179 21.0409 6.43844Z" stroke="#2C2C2C" stroke-width="1.6565" stroke-miterlimit="10"/>
<path d="M10.9997 14.5294C13.1571 14.5294 14.9061 12.7804 14.9061 10.623C14.9061 8.46552 13.1571 6.71655 10.9997 6.71655C8.84223 6.71655 7.09326 8.46552 7.09326 10.623C7.09326 12.7804 8.84223 14.5294 10.9997 14.5294Z" stroke="#2C2C2C" stroke-width="1.6565" stroke-miterlimit="10"/>
</g>
<defs>
<clipPath id="clip0_1613_20055">
<rect width="22" height="19.5865" fill="white" transform="translate(0 0.137695)"/>
</clipPath>
</defs>
</svg>
