<svg width="22" height="17" viewBox="0 0 22 17" fill="none" xmlns="http://www.w3.org/2000/svg">
<path d="M5.69357 9.73469L4.96077 6.07068L4.22797 2.40667C4.10262 1.77993 3.55302 1.32675 2.907 1.32675H1.3064M17.9984 12.9841H8.52013C7.91268 12.9841 7.392 12.5502 7.26665 11.962L5.84926 4.87506C5.69499 4.0844 6.2928 3.3516 7.10274 3.3516H19.4157C20.2257 3.3516 20.8235 4.0844 20.6692 4.87506L19.2518 11.962C19.1361 12.5502 18.6154 12.9841 17.9984 12.9841ZM11.3356 14.9125C11.3356 15.445 10.9039 15.8767 10.3714 15.8767C9.83891 15.8767 9.40722 15.445 9.40722 14.9125C9.40722 14.38 9.83891 13.9483 10.3714 13.9483C10.9039 13.9483 11.3356 14.38 11.3356 14.9125ZM17.1578 14.9125C17.1578 15.445 16.7261 15.8767 16.1936 15.8767C15.6611 15.8767 15.2294 15.445 15.2294 14.9125C15.2294 14.38 15.6611 13.9483 16.1936 13.9483C16.7261 13.9483 17.1578 14.38 17.1578 14.9125Z" stroke="#D1D3D9" stroke-width="1.5" stroke-miterlimit="10" stroke-linecap="round" stroke-linejoin="round"/>
</svg>
