<svg width="332" height="145" viewBox="0 0 332 145" fill="none" xmlns="http://www.w3.org/2000/svg">
<path d="M327.17 10.365C327.17 14.0537 329.098 17.2891 332 19.1278V22.3322C329.098 24.1709 327.17 27.4063 327.17 31.095C327.17 34.7837 329.098 38.019 332 39.8577V43.0621C329.098 44.9009 327.17 48.1362 327.17 51.8249C327.17 55.5136 329.098 58.749 332 60.5877V63.7921C329.098 65.6308 327.17 68.8662 327.17 72.5549C327.17 76.2436 329.098 79.479 332 81.3177V84.5221C329.098 86.3608 327.17 89.5962 327.17 93.2849C327.17 96.9736 329.098 100.206 332 102.048V105.252C329.098 107.088 327.17 110.326 327.17 114.009C327.17 117.701 329.098 120.936 332 122.775V125.976C329.098 127.818 327.17 131.053 327.17 134.742C327.17 138.431 329.098 141.666 332 143.505V144.997H103.199C103.199 137.141 96.8246 130.772 88.9623 130.772C88.9257 130.772 88.8862 130.772 88.8496 130.775V14.2226C88.8862 14.2255 88.9257 14.2255 88.9623 14.2255C96.8246 14.2255 103.199 7.8561 103.199 0H332V1.60501C329.098 3.44092 327.17 6.67628 327.17 10.365Z" fill="url(#paint0_linear_2754_26744)"/>
<path d="M88.8495 14.2226V130.775C81.0379 130.834 74.7256 137.178 74.7256 144.997H0V143.505C2.90257 141.666 4.83009 138.431 4.83009 134.742C4.83009 131.053 2.90257 127.818 0 125.976V122.775C2.90257 120.936 4.83009 117.701 4.83009 114.009C4.83009 110.326 2.90257 107.088 0 105.252V102.048C2.90257 100.206 4.83009 96.9736 4.83009 93.2849C4.83009 89.5962 2.90257 86.3608 0 84.5221V81.3177C2.90257 79.479 4.83009 76.2436 4.83009 72.5549C4.83009 68.8662 2.90257 65.6308 0 63.7921V60.5877C2.90257 58.749 4.83009 55.5136 4.83009 51.8249C4.83009 48.1362 2.90257 44.9009 0 43.0621V39.8577C2.90257 38.019 4.83009 34.7837 4.83009 31.095C4.83009 27.4063 2.90257 24.1737 0 22.3322V19.1278C2.90257 17.2891 4.83009 14.0537 4.83009 10.365C4.83009 6.67628 2.90257 3.44092 0 1.60501V0H74.7256C74.7256 7.8195 81.0379 14.1635 88.8495 14.2226Z" fill="url(#paint1_linear_2754_26744)"/>
<path opacity="0.15" d="M332 1.60219V0H103.199C103.199 7.8561 96.8245 14.2255 88.9622 14.2255C81.0999 14.2255 74.7256 7.8561 74.7256 0H0V1.60219C2.90257 3.44092 4.83009 6.67628 4.83009 10.365C4.83009 14.0537 2.90257 17.2891 0 19.1278V22.3322C2.90257 24.1709 4.83009 27.4063 4.83009 31.095C4.83009 34.7837 2.90257 38.019 0 39.8577V43.0621C2.90257 44.9009 4.83009 48.1362 4.83009 51.8249C4.83009 55.5136 2.90257 58.749 0 60.5877V63.7921C2.90257 65.6308 4.83009 68.8662 4.83009 72.5549C4.83009 76.2436 2.90257 79.479 0 81.3177V84.5221C2.90257 86.3608 4.83009 89.5962 4.83009 93.2849C4.83009 96.9736 2.90257 100.209 0 102.048V105.252C2.90257 107.088 4.83009 110.326 4.83009 114.012C4.83009 117.701 2.90257 120.936 0 122.775V125.979C2.90257 127.818 4.83009 131.053 4.83009 134.742C4.83009 138.431 2.90257 141.666 0 143.505V144.997H74.7256C74.7256 137.141 81.0999 130.772 88.9622 130.772C96.8245 130.772 103.199 137.141 103.199 144.997H332V143.505C329.097 141.666 327.17 138.431 327.17 134.742C327.17 131.053 329.097 127.818 332 125.979V122.775C329.097 120.936 327.17 117.701 327.17 114.012C327.17 110.326 329.097 107.088 332 105.252V102.048C329.097 100.209 327.17 96.9736 327.17 93.2849C327.17 89.5962 329.097 86.3608 332 84.5221V81.3177C329.097 79.479 327.17 76.2436 327.17 72.5549C327.17 68.8662 329.097 65.6308 332 63.7921V60.5877C329.097 58.749 327.17 55.5136 327.17 51.8249C327.17 48.1362 329.097 44.9009 332 43.0621V39.8577C329.097 38.019 327.17 34.7837 327.17 31.095C327.17 27.4063 329.097 24.1709 332 22.3322V19.1278C329.097 17.2891 327.17 14.0537 327.17 10.365C327.17 6.67628 329.097 3.44092 332 1.60219ZM310.155 114.465C302.304 114.465 295.941 120.826 295.941 128.671H105.374C105.374 120.826 99.0113 114.465 91.1603 114.465H87.9308C80.0798 114.465 73.7167 120.826 73.7167 128.671H36.0594C36.0594 120.826 29.6963 114.465 21.8453 114.465V30.529C29.6963 30.529 36.0594 24.1681 36.0594 16.3232H73.7167C73.7167 24.1681 80.0798 30.529 87.9308 30.529H91.1603C99.0113 30.529 105.374 24.1681 105.374 16.3232H295.941C295.941 24.1681 302.304 30.529 310.155 30.529V114.465Z" fill="white"/>
<defs>
<linearGradient id="paint0_linear_2754_26744" x1="192.103" y1="15.3034" x2="232.61" y2="126.21" gradientUnits="userSpaceOnUse">
<stop stop-color="#FD851F"/>
<stop offset="0.073" stop-color="#FA7B23"/>
<stop offset="0.2942" stop-color="#F3602D"/>
<stop offset="0.5204" stop-color="#ED4D34"/>
<stop offset="0.7526" stop-color="#EA4239"/>
<stop offset="1" stop-color="#E93E3A"/>
</linearGradient>
<linearGradient id="paint1_linear_2754_26744" x1="3.54944" y1="84.0586" x2="187.326" y2="21.1382" gradientUnits="userSpaceOnUse">
<stop stop-color="#FD851F"/>
<stop offset="0.073" stop-color="#FA7B23"/>
<stop offset="0.2942" stop-color="#F3602D"/>
<stop offset="0.5204" stop-color="#ED4D34"/>
<stop offset="0.7526" stop-color="#EA4239"/>
<stop offset="1" stop-color="#E93E3A"/>
</linearGradient>
</defs>
</svg>
