<svg width="19" height="18" viewBox="0 0 19 18" fill="none" xmlns="http://www.w3.org/2000/svg">
<path d="M2.67059 9.71227L4.20887 11.1943C4.40584 11.3912 4.49963 11.6632 4.45274 11.9353L3.69298 16.2687C3.57104 16.9534 4.30266 17.4693 4.92172 17.1504L8.87995 15.1056C9.12382 14.9743 9.42397 14.9743 9.66784 15.1056L11.2718 15.931L13.6261 17.1503C14.2451 17.4693 14.9767 16.9534 14.8548 16.2687L14.095 11.9352C14.0481 11.6632 14.1419 11.3818 14.3389 11.1942L17.5468 8.12709C18.0533 7.63935 17.7719 6.80456 17.0778 6.70138L12.6506 6.07294C12.3786 6.02604 12.1347 5.85721 12.0128 5.61334L10.0336 1.66449C9.72411 1.04543 8.82366 1.04543 8.51413 1.66449L6.53502 5.61334C6.41308 5.86659 6.16925 6.03544 5.89724 6.07296L1.47002 6.7014C0.775928 6.80457 0.494537 7.63936 1.00104 8.12711L2.66124 9.72165" stroke="#B3B3B3" stroke-width="1.13253" stroke-miterlimit="10" stroke-linecap="round"/>
</svg>
