<svg width="20" height="19" viewBox="0 0 20 19" fill="none" xmlns="http://www.w3.org/2000/svg">
<path d="M10.9704 1.60305L12.8323 5.37456C12.9807 5.67696 13.2691 5.88415 13.6023 5.93455L17.7658 6.53934C18.603 6.65973 18.939 7.69011 18.3314 8.2809L15.3187 11.218C15.0779 11.4532 14.9687 11.792 15.0247 12.1224L15.7359 16.2691C15.8787 17.1035 15.0023 17.7391 14.2547 17.3471L10.5308 15.3899C10.234 15.2331 9.8784 15.2331 9.57881 15.3899L5.8549 17.3471C5.10452 17.7419 4.22813 17.1035 4.37373 16.2691L5.08492 12.1224C5.14091 11.792 5.03171 11.4532 4.79092 11.218L1.77819 8.2809C1.1706 7.69011 1.5066 6.65973 2.34378 6.53934L6.50728 5.93455C6.84047 5.88695 7.12886 5.67696 7.27726 5.37456L9.13922 1.60305C9.51441 0.844271 10.598 0.844271 10.9704 1.60305Z" stroke="#2C2C2C" stroke-width="1.11997" stroke-miterlimit="10"/>
<path d="M7.67172 9.96925L9.22568 11.5232C9.46368 11.7612 9.84727 11.7612 10.0825 11.5232L12.9384 8.66728" stroke="#2C2C2C" stroke-width="1.11997" stroke-miterlimit="10" stroke-linecap="round" stroke-linejoin="round"/>
</svg>
