<svg width="100" height="100" viewBox="0 0 100 100" fill="none" xmlns="http://www.w3.org/2000/svg">
<!-- <g clip-path="url(#clip0_4055_35703)">
<rect width="100" height="100" rx="50" fill="white"/>
<g clip-path="url(#clip1_4055_35703)"> -->
<path d="M80.8511 19.8909L81.5535 12.2996C82.4781 2.31946 74.0654 -6.02975 64.0932 -5.02181L48.9027 -3.83927C41.6844 -3.10911 35.867 2.41073 34.7598 9.58533L33.1924 19.7639" stroke="#808285" stroke-width="1.96198" stroke-miterlimit="10"/>
<path d="M22.367 20.8315C22.367 20.8315 19.0574 21.0339 17.236 24.4942C15.4146 27.9546 14.8114 32.9784 16.3471 37.3355C17.8828 41.6887 21.3709 43.1688 21.3709 43.1688" fill="black"/>
<path d="M16.9981 31.4585C16.9981 31.4585 18.3989 29.1807 19.1807 27.6688C19.9624 26.1569 19.7918 23.8592 19.7005 23.264C19.6093 22.6688 17.7997 25.8473 17.0775 27.7878C16.3593 29.7283 16.9981 31.4585 16.9981 31.4585Z" fill="#292929"/>
<path d="M27.2759 16.8672C27.2759 16.8672 21.4228 17.9466 20.4783 22.8553C19.5339 27.764 19.149 34.7164 19.7005 39.145C20.2482 43.5735 20.3712 44.3712 21.772 45.3473C23.1728 46.3235 24.3632 46.4585 24.3632 46.4585" fill="#81898C"/>
<path d="M22.601 28.8552C22.601 28.8552 22.5811 25.2441 22.843 23.9941C23.1049 22.7441 23.2002 21.8076 22.9819 21.0973C22.7597 20.387 21.1644 21.7282 21.2478 24.4901C21.3271 27.256 22.601 28.8552 22.601 28.8552Z" fill="#DCDFE0"/>
<path d="M49.5254 1.78786L64.7476 0.938659C64.8071 0.625167 64.8944 0.331516 65.0016 0.0616743C65.0849 -0.164516 65.1841 -0.370865 65.2992 -0.557373L50.0809 0.43469C49.9262 0.672786 49.7952 0.950563 49.6841 1.26009C49.6167 1.43072 49.5651 1.60533 49.5254 1.78786Z" fill="#EDD2AB"/>
<path d="M34.7714 32.0933C34.7714 32.0933 38.8587 42.7361 28.1166 48.7718C17.3746 54.8076 8.31899 45.6726 6.46582 44.3433" stroke="#EDD2AB" stroke-width="5.23889" stroke-miterlimit="10" stroke-linecap="round" stroke-linejoin="round"/>
<path d="M64.6486 1.63708C64.5137 3.4228 65.1843 4.94264 66.1605 5.14899C66.2081 5.15692 66.2557 5.16486 66.3034 5.16883C67.3589 5.24819 68.3232 3.79581 68.4661 1.9228C68.6049 0.0537497 67.8669 -1.52562 66.8113 -1.60498L66.4978 -1.58117C65.5732 -1.38673 64.7756 -0.045457 64.6486 1.63708Z" fill="#D6B07F"/>
<path d="M65.5373 1.70458C65.4699 2.60538 65.7873 3.38315 66.2596 3.55776C66.3707 3.55379 66.4858 3.55776 66.5969 3.57363C67.2358 3.64109 67.827 3.9268 68.2873 4.39903C68.8469 4.97839 69.1247 5.74426 69.0651 6.54585L68.327 16.3832L70.4619 16.5419L71.3508 4.65696C71.4739 3.01807 70.6723 1.63712 69.4342 0.815693C68.6445 0.363312 67.7635 0.0855345 66.8469 0.00616947C66.7358 -0.00573529 66.6246 -0.0136719 66.5096 -0.0136719C66.0215 0.101407 65.6048 0.811724 65.5373 1.70458Z" fill="#EDD2AB"/>
<path d="M69.4341 0.81958C70.6722 1.64101 71.4738 3.02196 71.3507 4.66085L70.4619 16.5458L71.8904 16.6529L72.6285 6.81561C72.7634 5.00609 72.1166 3.22434 70.8587 1.91879C70.4301 1.47831 69.9539 1.11323 69.4341 0.81958Z" fill="#D6B07F"/>
<path d="M46.9662 6.77581L46.2876 15.8393L47.6686 16.0457L48.3273 7.25597C48.3987 6.3155 48.9305 5.50597 49.7003 5.05756C49.5455 4.69645 49.4344 4.26391 49.3868 3.79565C48.0416 4.18454 47.0733 5.36708 46.9662 6.77581Z" fill="#D6B07F"/>
<path d="M44.7638 6.99017L44.0693 16.264L47.6289 16.5299L47.6646 16.0418L46.2836 15.8354L46.9622 6.77191C47.0693 5.36318 48.0376 4.18064 49.3828 3.79176C49.3431 3.45445 49.3392 3.10128 49.367 2.73223C49.4066 2.19652 49.5177 1.69652 49.6765 1.26001C47.0098 1.87509 44.9781 4.17271 44.7638 6.99017Z" fill="#EDD2AB"/>
<path d="M66.4978 -1.5813L51.5296 -0.50987C51.5256 -0.50987 51.5256 -0.50987 51.5217 -0.50987C50.982 -0.545585 50.4661 -0.184473 50.0732 0.434574L65.2915 -0.557489C65.6129 -1.11304 66.0415 -1.48606 66.4978 -1.5813Z" fill="#D6B07F"/>
<path d="M49.3705 2.7361C49.3031 3.61705 49.434 4.43451 49.7039 5.05752C50.0015 5.7599 50.4737 6.22022 51.0253 6.26387C51.0729 6.26784 51.1166 6.25991 51.1642 6.25991L51.3031 6.25197C51.307 6.25197 51.311 6.248 51.315 6.248L66.1602 5.14879C65.5928 5.02975 65.1245 4.46229 64.8666 3.65673C64.6761 3.08133 64.5928 2.38292 64.6483 1.63689C64.6682 1.39483 64.6999 1.16467 64.7436 0.938477L49.5213 1.78768C49.4459 2.0853 49.3943 2.40276 49.3705 2.7361Z" fill="#D6B07F"/>
<path d="M25.2988 89.4308L35.0806 90.2681L35.3861 87.0776L27.6401 86.7046C26.6679 87.3514 25.8861 88.3117 25.2988 89.4308Z" fill="#D6B07F"/>
<path d="M24.3071 96.645C25.0888 100.026 26.9976 101.089 26.9976 101.089L34.2833 101.831L34.0888 100.621L35.0809 90.268L25.2992 89.4307C24.1603 91.6211 23.7912 94.4108 24.3071 96.645Z" fill="#EDD2AB"/>
<path d="M66.4463 92.9427L76.228 93.78L76.4542 90.2284L68.8511 89.5498C68.855 89.5458 67.4066 90.8712 66.4463 92.9427Z" fill="#D6B07F"/>
<path d="M65.7834 102.47C66.4818 104.578 67.7516 105.32 67.7516 105.32L75.2675 106.082L75.5373 104.605L76.2278 93.776L66.4461 92.9387C66.3548 93.1252 66.2754 93.3197 66.1961 93.5221C65.2596 95.9189 65.085 100.367 65.7834 102.47Z" fill="#EDD2AB"/>
<path d="M31.0692 94.1688C30.7636 98.2442 32.2041 101.673 34.2875 101.828C36.3708 101.982 38.3073 98.8077 38.6128 94.7323C38.9184 90.6569 37.4779 87.2283 35.3946 87.0735C33.3073 86.9188 31.3708 90.0973 31.0692 94.1688Z" fill="#D6B07F"/>
<path d="M32.7356 94.1887C32.549 96.6609 33.3467 98.7324 34.5094 98.8197C35.676 98.907 36.7673 96.9744 36.9538 94.5022C37.1403 92.03 36.3427 89.9586 35.18 89.8713C34.0173 89.784 32.9221 91.7165 32.7356 94.1887Z" fill="#EDD2AB"/>
<path d="M79.6307 98.4298C79.9583 94.0501 78.5355 90.3734 76.4528 90.2175C74.37 90.0617 72.416 93.4859 72.0884 97.8655C71.7607 102.245 73.1835 105.922 75.2663 106.078C77.349 106.234 79.303 102.809 79.6307 98.4298Z" fill="#D6B07F"/>
<path d="M73.7598 97.879C73.5614 100.534 74.3431 102.756 75.5098 102.843C76.6764 102.931 77.7796 100.847 77.978 98.1925C78.1764 95.5378 77.3947 93.3155 76.228 93.2282C75.0653 93.1409 73.9582 95.2243 73.7598 97.879Z" fill="#EDD2AB"/>
<path d="M63.5093 89.7838L79.5569 90.5894C82.7117 90.7481 85.418 88.3632 85.6521 85.2124L86.4101 75.0933L65.9021 72.8552L65.041 73.0021L63.5093 89.7838Z" fill="#58595B"/>
<path d="M65.0415 73.002L65.9026 72.8552L86.4105 75.0933L89.8669 28.9346C90.101 25.8314 88.359 22.9187 85.5177 21.6528L70.3471 14.9028L65.0415 73.002Z" fill="#EA596E"/>
<path d="M23.9657 21.1091L20.2832 70.3194L23.0411 70.4861C24.2951 70.5655 25.2475 71.6488 25.1523 72.9028L24.7356 78.4702C24.6523 79.5972 25.4935 80.5814 26.6165 80.6687L61.4896 83.3988C62.6205 83.4861 63.6086 82.6409 63.6919 81.5099L64.1642 75.1885C64.2554 73.9583 65.3149 73.0298 66.5491 73.1052L70.2872 73.3274L74.1959 21.0774C74.4697 17.4425 71.5372 14.3631 67.8943 14.4544L29.9578 15.3988C26.7951 15.4901 24.2038 17.9544 23.9657 21.1091Z" fill="#F27985"/>
<path d="M38.2637 81.5853L44.0176 88.2719L62.847 89.7679C66.2518 90.0377 69.228 87.4861 69.4859 84.0853L70.2915 73.3393L66.5534 73.1171C65.3232 73.0417 64.2597 73.9663 64.1684 75.2004L63.6962 81.5219C63.6129 82.6528 62.6248 83.498 61.4938 83.4107L38.2637 81.5853Z" fill="#808285"/>
<path d="M20.2835 70.3235L19.5454 80.1727C19.2914 83.5576 21.8192 86.51 25.2081 86.7798L44.0176 88.2719L38.2637 81.5854L26.6168 80.6727C25.4938 80.5854 24.6526 79.6013 24.7359 78.4743L25.1526 72.9068C25.2478 71.6528 24.2954 70.5655 23.0414 70.4902L20.2835 70.3235Z" fill="#58595B"/>
<path d="M45.8973 79.4577C48.6776 77.271 49.1588 73.2445 46.972 70.4642C44.7853 67.6839 40.7588 67.2027 37.9785 69.3895C35.1982 71.5762 34.717 75.6027 36.9038 78.383C39.0905 81.1633 43.117 81.6445 45.8973 79.4577Z" fill="white"/>
<path d="M43.8234 72.7998L43.4266 77.8673C43.3908 78.3236 42.994 78.6649 42.5377 78.6292L37.4702 78.2323L43.8234 72.7998Z" fill="#25258C"/>
<path d="M46.3627 70.6251L44.6683 72.0735L38.7754 71.6132L40.0333 70.5338C40.3111 70.2957 40.6722 70.1767 41.0373 70.2084L46.3627 70.6251Z" fill="#FF4200"/>
<path d="M46.3633 70.625L45.9466 75.9464C45.9188 76.3115 45.7442 76.6488 45.4664 76.8869L44.2085 77.9663L44.6688 72.0734L46.3633 70.625Z" fill="#00A9EA"/>
<path d="M43.8233 72.7998L37.4741 78.2323L37.8709 73.1649C37.9067 72.7085 38.3035 72.3672 38.7598 72.403L43.8233 72.7998Z" fill="#FF4200"/>
<path d="M36.0569 40.7363C32.7831 40.7284 30.2077 37.9427 30.4538 34.6768L30.7554 30.6252C30.9736 27.7006 33.3982 25.4308 36.3308 25.4069C39.6284 25.3792 42.2435 28.1768 41.9974 31.4665L41.6958 35.5181C41.4776 38.4704 39.0133 40.7442 36.0569 40.7363Z" fill="#F9B2BC"/>
<path d="M55.1564 41.1568H54.8707C51.5016 41.1568 48.8469 38.2956 49.0969 34.9385L49.4342 30.4107C49.6564 27.4425 52.0929 25.129 55.0691 25.0575L55.3588 25.0496C58.7794 24.9663 61.5255 27.8552 61.2675 31.2679L60.9302 35.7996C60.7001 38.8234 58.1842 41.1568 55.1564 41.1568Z" fill="#F9B2BC"/>
<path d="M36.1326 39.7522C32.8588 39.7442 30.2834 36.9585 30.5295 33.6927L30.831 29.6411C31.0493 26.7165 33.4739 24.4466 36.4064 24.4228C39.7041 24.395 42.3191 27.1927 42.0731 30.4823L41.7715 34.5339C41.5493 37.4823 39.089 39.7601 36.1326 39.7522Z" fill="white"/>
<path d="M32.0489 33.1569C31.8545 35.772 33.8148 38.0498 36.4299 38.2443C39.045 38.4387 41.3228 36.4784 41.5172 33.8633C41.7116 31.2482 39.7513 28.9704 37.1362 28.776C34.5212 28.5816 32.2434 30.5419 32.0489 33.1569Z" fill="black"/>
<path d="M36.4817 31.7681C36.3865 33.026 37.3309 34.1212 38.5889 34.2165C39.8468 34.3117 40.942 33.3673 41.0373 32.1093C41.1325 30.8514 40.1881 29.7561 38.9301 29.6609C37.6722 29.5657 36.577 30.5101 36.4817 31.7681Z" fill="white"/>
<path d="M55.2316 40.145H54.9459C51.5768 40.145 48.9221 37.2839 49.1721 33.9268L49.5094 29.399C49.7316 26.4307 52.1681 24.1173 55.1443 24.0458L55.434 24.0379C58.8546 23.9546 61.6006 26.8434 61.3427 30.2561L61.0054 34.7879C60.7752 37.8077 58.2594 40.145 55.2316 40.145Z" fill="white"/>
<path d="M50.9422 33.3076C50.7398 35.9902 52.7557 38.3314 55.4383 38.5298C58.1208 38.7322 60.4621 36.7164 60.6605 34.0338C60.8629 31.3513 58.847 29.01 56.1644 28.8116C53.4819 28.6132 51.1406 30.6251 50.9422 33.3076Z" fill="black"/>
<path d="M55.442 31.8037C55.3468 33.0934 56.315 34.2204 57.6047 34.3156C58.8944 34.4108 60.0214 33.4426 60.1166 32.1529C60.2119 30.8632 59.2436 29.7362 57.9539 29.641C56.6642 29.5457 55.5372 30.514 55.442 31.8037Z" fill="white"/>
<path d="M79.9102 51.3274C79.9102 51.3274 96.4419 52.5218 93.0848 73.1091" stroke="#EDD2AB" stroke-width="5.23889" stroke-miterlimit="10" stroke-linecap="round" stroke-linejoin="round"/>
<path d="M32.6999 47.3076C32.3745 51.6647 34.5253 55.6211 37.9499 57.8155C39.4975 58.8116 41.3031 59.4425 43.2634 59.5893C43.3904 59.5973 43.5134 59.6092 43.6404 59.6131C48.0491 59.8036 51.9975 57.4703 54.065 53.879C54.8983 52.4346 55.4261 50.7878 55.557 49.0219L55.6404 47.883C55.688 47.2203 55.1721 46.6528 54.5094 46.6409L33.8745 46.2401C33.2594 46.2243 32.7475 46.6965 32.6999 47.3076Z" fill="black"/>
<path d="M37.9542 57.78L37.9502 57.8157C39.4978 58.8118 41.3034 59.4427 43.2637 59.5895C43.3907 59.5975 43.5137 59.6094 43.6407 59.6133C48.0494 59.8038 51.9978 57.4705 54.0653 53.8792C52.47 52.7681 50.3589 52.0102 48.0057 51.8356C42.728 51.4387 38.228 54.1014 37.9542 57.78Z" fill="#FA0E24"/>
<path d="M33.8467 47.0339H33.8586L54.4935 47.4347C54.6324 47.4386 54.7197 47.5101 54.7594 47.5537C54.7991 47.5974 54.8626 47.6886 54.8507 47.8236L54.7674 48.9625C54.6483 50.5696 54.1801 52.0934 53.3785 53.4863C51.4777 56.7839 47.938 58.8355 44.1404 58.8355C43.9856 58.8355 43.8309 58.8315 43.6721 58.8236C43.5531 58.8196 43.442 58.8117 43.3229 58.7998C41.565 58.6688 39.8547 58.0974 38.3785 57.149C35.0729 55.0339 33.1999 51.2839 33.4936 47.3712C33.5055 47.1807 33.6602 47.0339 33.8467 47.0339ZM33.8467 46.2402C33.2436 46.2402 32.7436 46.7085 32.6999 47.3117C32.3745 51.6688 34.5253 55.6252 37.9499 57.8196C39.4975 58.8156 41.3031 59.4466 43.2634 59.5934C43.3904 59.6013 43.5134 59.6133 43.6404 59.6172C43.807 59.6252 43.9737 59.6291 44.1364 59.6291C48.3428 59.6291 52.0729 57.3394 54.065 53.8831C54.8983 52.4386 55.4261 50.7918 55.557 49.026L55.6404 47.8871C55.688 47.2244 55.1721 46.6569 54.5094 46.645L33.8745 46.2442C33.8666 46.2402 33.8547 46.2402 33.8467 46.2402Z" fill="black"/>
<path d="M82.3039 20.3117C82.3039 20.3117 82.5301 17.3037 80.1849 16.8672C77.8396 16.4268 74.9388 18.649 73.8992 24.7125C72.8595 30.776 73.5301 37.6252 74.8754 42.6252C76.2206 47.6212 77.2365 48.3712 78.5579 48.3275C79.8793 48.2839 81.4547 46.9823 81.3873 45.4029" fill="#81898C"/>
<path d="M76.4862 29.8473C76.4862 29.8473 76.9981 25.5219 78.1449 22.4306C79.2918 19.3354 79.6092 17.5893 78.0497 18.8354C76.4822 20.0814 74.764 25.1727 76.4862 29.8473Z" fill="#DCDFE0"/>
<path d="M80.7883 18.76C80.7883 18.76 77.8716 22.8394 77.6891 31.383C77.5065 39.9267 80.3597 46.0933 80.3597 46.0933C80.3597 46.0933 87.7446 41.8116 88.451 33.5695C89.1573 25.3314 85.4073 19.8751 80.7883 18.76Z" fill="black"/>
<path d="M79.8835 30.3235C79.8835 30.3235 79.7605 27.3275 80.7287 24.264C81.697 21.1965 83.3081 21.7203 84.2763 23.0536C85.2446 24.3909 85.1573 27.2719 79.8835 30.3235Z" fill="#292929"/>
<path d="M30.065 58.4466C30.065 58.4466 19.319 54.0736 21.0016 42.0974" stroke="white" stroke-width="1.19048" stroke-miterlimit="10"/>
<path d="M29.9344 61.8395C31.6567 63.3315 33.99 63.4545 35.1487 62.1172C35.2757 61.9704 35.3828 61.8156 35.4662 61.649C36.1924 60.2918 35.6646 58.3236 34.1328 56.9982C32.4106 55.5061 30.0773 55.3831 28.9186 56.7204C28.8273 56.8276 28.7479 56.9387 28.6805 57.0537C27.8392 58.4149 28.3511 60.4704 29.9344 61.8395Z" fill="#5F6060"/>
<path d="M34.7596 59.3314C34.5294 59.7282 33.4223 59.5139 32.2873 58.8592C31.1485 58.2044 30.4143 57.3512 30.6405 56.9544C30.8707 56.5576 31.9778 56.7719 33.1127 57.4266C34.2516 58.0814 34.9897 58.9346 34.7596 59.3314Z" fill="#7E7F7D"/>
<path d="M29.9344 61.8394C31.6567 63.3315 33.99 63.4545 35.1487 62.1172C35.2757 61.9704 35.3828 61.8156 35.4662 61.6489C34.4225 61.8355 32.9424 61.7839 31.1567 60.8593C29.1884 59.8355 28.7082 58.272 28.6805 57.0537C27.8392 58.4148 28.3511 60.4704 29.9344 61.8394Z" fill="#4A4A4D"/>
<path d="M32.615 43.698C32.7719 42.0552 31.134 40.5548 28.9566 40.3468C26.7793 40.1388 24.8869 41.3019 24.73 42.9448C24.573 44.5876 26.2109 46.0881 28.3883 46.2961C30.5657 46.5041 32.458 45.3409 32.615 43.698Z" fill="#F9B2BC"/>
<path d="M65.8467 45.1537C66.0101 43.4432 64.3031 41.8808 62.0341 41.6641C59.7651 41.4473 57.7933 42.6582 57.6299 44.3687C57.4664 46.0792 59.1734 47.6415 61.4424 47.8583C63.7114 48.0751 65.6833 46.8641 65.8467 45.1537Z" fill="#F9B2BC"/>
<path d="M30.8149 29.0854C31.0014 26.3156 33.2753 24.1529 36.053 24.1092C37.3943 24.0894 38.6205 24.5616 39.5649 25.3553" stroke="black" stroke-width="0.786905" stroke-miterlimit="10" stroke-linecap="round"/>
<path d="M52.5615 25.1926C53.4306 24.5061 54.5139 24.0854 55.6964 24.0497L55.9623 24.0418C59.1131 23.9426 61.6647 26.5815 61.4544 29.7283" stroke="black" stroke-width="0.786905" stroke-miterlimit="10" stroke-linecap="round"/>
<path d="M62.7199 22.7441C62.7199 22.7441 61.831 24.8751 59.6167 25.3354" stroke="black" stroke-width="0.786905" stroke-miterlimit="10" stroke-linecap="round"/>
<path d="M60.6328 26.5061C60.6328 26.5061 62.8749 26.9823 64.7638 25.5378" stroke="black" stroke-width="0.786905" stroke-miterlimit="10" stroke-linecap="round"/>
<path d="M61.4023 28.5576C61.4023 28.5576 63.3746 29.6052 64.9896 28.7957" stroke="black" stroke-width="0.786905" stroke-miterlimit="10" stroke-linecap="round"/>
<path d="M33.6366 24.7321C33.6366 24.7321 31.0532 24.9782 30.0215 23.2202" stroke="black" stroke-width="0.786905" stroke-miterlimit="10" stroke-linecap="round"/>
<path d="M31.8152 26.3155C31.8152 26.3155 29.5018 26.8472 28.3271 25.4226" stroke="black" stroke-width="0.786905" stroke-miterlimit="10" stroke-linecap="round"/>
<path d="M30.9742 28.1052C30.9742 28.1052 29.621 29.2005 27.5337 28.4227" stroke="black" stroke-width="0.786905" stroke-miterlimit="10" stroke-linecap="round"/>
<!--</g>
</g>-->
<defs>
<clipPath id="clip0_4055_35703">
<rect width="100" height="100" rx="50" fill="white"/>
</clipPath>
<clipPath id="clip1_4055_35703">
<rect width="92.3056" height="112.171" fill="white" transform="translate(3.84717 -6.08521)"/>
</clipPath>
</defs>
</svg>
