<svg width="19" height="20" viewBox="0 0 19 20" fill="none" xmlns="http://www.w3.org/2000/svg">
<path d="M6.35276 13.5685L13.1329 6.78831M17.5266 11.4701L16.8426 12.1539C16.4517 12.5446 16.2368 13.0721 16.2368 13.6191V14.596C16.2368 15.7389 15.3084 16.6669 14.1651 16.6669H13.1879C12.6407 16.6669 12.113 16.8818 11.7222 17.2725L11.0381 17.9563C10.2271 18.7671 8.91764 18.7671 8.10658 17.9563L7.42255 17.2725C7.03167 16.8818 6.50399 16.6669 5.95677 16.6669H4.97959C3.83628 16.6669 2.90795 15.7389 2.90795 14.596V13.6289C2.90795 13.0819 2.69297 12.5544 2.3021 12.1637L1.6083 11.4701C0.797234 10.6593 0.797234 9.35037 1.6083 8.53959L2.3021 7.84604C2.69297 7.4553 2.90795 6.92781 2.90795 6.38078V5.41372C2.90795 4.27082 3.83628 3.34282 4.97959 3.34282H5.947C6.49422 3.34282 7.0219 3.12792 7.41278 2.73718L8.10658 2.04363C8.91764 1.23285 10.2271 1.23285 11.0381 2.04363L11.7319 2.73718C12.1228 3.12792 12.6505 3.34282 13.1977 3.34282H14.1749C15.3182 3.34282 16.2465 4.27082 16.2465 5.41372V6.39055C16.2465 6.93758 16.4615 7.46507 16.8524 7.85581L17.5364 8.53959C18.3279 9.35037 18.3279 10.6593 17.5266 11.4701ZM7.42331 7.85886C7.42331 8.25303 7.10378 8.57256 6.70961 8.57256C6.31544 8.57256 5.99591 8.25303 5.99591 7.85886C5.99591 7.46469 6.31544 7.14516 6.70961 7.14516C7.10378 7.14516 7.42331 7.46469 7.42331 7.85886ZM12.4192 12.8548C12.4192 13.2489 12.0997 13.5685 11.7055 13.5685C11.3114 13.5685 10.9918 13.2489 10.9918 12.8548C10.9918 12.4606 11.3114 12.1411 11.7055 12.1411C12.0997 12.1411 12.4192 12.4606 12.4192 12.8548Z" stroke="#FF4200" stroke-width="1.4274" stroke-miterlimit="10" stroke-linecap="round"/>
</svg>
