<svg width="20" height="18" viewBox="0 0 20 18" fill="none" xmlns="http://www.w3.org/2000/svg">
<path d="M19.0036 5.78894C17.6933 8.04289 15.1033 9.09847 15.1033 9.09847C15.1033 9.09847 12.5106 8.04289 11.2002 5.78894C9.88984 3.535 10.5282 1.42385 11.9842 1.07105C13.4402 0.721063 14.5909 1.72904 15.1033 2.67262C15.6129 1.72904 16.7665 0.721063 18.2196 1.07385C19.6756 1.42385 20.314 3.535 19.0036 5.78894Z" stroke="#2C2C2C" stroke-width="1.11997" stroke-miterlimit="10"/>
<path d="M17.2116 8.03168C17.2116 10.9184 14.8709 13.262 11.9813 13.262" stroke="#2C2C2C" stroke-width="1.11997" stroke-miterlimit="10" stroke-linecap="round" stroke-linejoin="round"/>
<path d="M5.73189 9.66406H10.0102C11.1022 9.66406 11.9841 10.5488 11.9841 11.638V15.3759C11.9841 16.4679 11.0994 17.3499 10.0102 17.3499H1.76158C1.34159 17.3499 1 17.0083 1 16.5883V10.91C1 10.49 1.34159 10.1485 1.76158 10.1485H2.97675C3.25675 10.1485 3.51434 9.99445 3.64594 9.74806L5.83549 4.84817C5.96708 4.60178 6.22468 4.44778 6.50467 4.44778H7.10666C7.52665 4.44778 7.86824 4.78938 7.86824 5.20937V7.9393" stroke="#2C2C2C" stroke-width="1.11997" stroke-miterlimit="10" stroke-linecap="round" stroke-linejoin="round"/>
<path d="M8.49826 12.156H11.9842" stroke="#2C2C2C" stroke-width="1.11997" stroke-miterlimit="10" stroke-linecap="round" stroke-linejoin="round"/>
<path d="M8.49826 14.6899H11.9842" stroke="#2C2C2C" stroke-width="1.11997" stroke-miterlimit="10" stroke-linecap="round" stroke-linejoin="round"/>
</svg>
