<svg width="26" height="26" viewBox="0 0 26 26" fill="none" xmlns="http://www.w3.org/2000/svg">
<path d="M22.0878 5.62089C21.6916 5.17518 21.1159 4.89661 20.4782 4.89661H3.98062C3.33681 4.89661 2.76109 5.17518 2.37109 5.62089L4.11681 3.33042C4.51919 2.81042 5.13824 2.50708 5.79443 2.50708H18.6644C19.3206 2.50708 19.9397 2.81042 20.3359 3.33042L22.0878 5.62089Z" fill="#00A9EA"/>
<path d="M22.6384 8.5057V13.9905C21.6479 13.3838 20.4779 13.0371 19.2336 13.0371C15.5936 13.0371 12.6408 15.99 12.6408 19.63C12.6408 20.2924 12.7398 20.93 12.9255 21.5305H3.9803C2.78554 21.5305 1.81982 20.5647 1.81982 19.37V8.5057C1.81982 7.31094 2.78554 6.34522 3.9803 6.34522H20.4779C21.6665 6.34522 22.6384 7.31094 22.6384 8.5057Z" fill="#FF4200"/>
<path d="M24.6011 19.63C24.6011 22.589 22.1992 24.9971 19.234 24.9971C18.4045 24.9971 17.6121 24.8052 16.9126 24.4647C16.6402 24.3347 16.374 24.18 16.1326 24.0066C14.7645 23.0347 13.873 21.4438 13.873 19.6361C13.873 16.6771 16.275 14.269 19.2402 14.269C21.9021 14.269 24.1059 16.2128 24.5269 18.7571C24.5516 18.8871 24.564 19.0171 24.5764 19.1471C24.5888 19.3019 24.6011 19.4628 24.6011 19.63Z" fill="#25258C"/>
<path d="M16.3988 20.1004C16.3678 19.9457 16.3555 19.7909 16.3555 19.63C16.3555 18.039 17.6431 16.7514 19.234 16.7514C19.5745 16.7514 19.9026 16.8133 20.2121 16.9185" stroke="white" stroke-width="1.23077" stroke-linecap="round" stroke-linejoin="round"/>
<path d="M20.0513 17.1414L20.5403 17.0547L20.2246 16.6771L20.0513 17.1414Z" fill="white"/>
<path d="M22.0814 19.1595C22.0937 19.2276 22.0999 19.2957 22.1061 19.3638C22.1185 19.4505 22.1185 19.5371 22.1185 19.6238C22.1185 21.2148 20.8309 22.5086 19.2399 22.5086C18.7757 22.5086 18.3299 22.3971 17.9399 22.199" stroke="white" stroke-width="1.23077" stroke-miterlimit="10" stroke-linecap="round" stroke-linejoin="round"/>
<path d="M22.193 18.9923L21.1963 20.1252L22.6758 20.4223L22.193 18.9923Z" stroke="white" stroke-width="1.23077" stroke-miterlimit="10" stroke-linecap="round" stroke-linejoin="round"/>
<path d="M16.374 20.1562L17.3706 19.0233L15.8911 18.7262L16.374 20.1562Z" stroke="white" stroke-width="1.23077" stroke-miterlimit="10" stroke-linecap="round" stroke-linejoin="round"/>
<path d="M16.4665 6.34522V6.38237C16.4665 12.35 11.6317 17.1847 5.66411 17.1847C4.3084 17.1847 3.01459 16.9371 1.81982 16.479V8.5057C1.81982 7.31094 2.78554 6.34522 3.9803 6.34522H16.4665Z" fill="#FC781F"/>
<path d="M10.561 12.3871H5.62717C4.99574 12.3871 4.48193 11.8733 4.48193 11.2419V8.71616C4.48193 8.08473 4.99574 7.57092 5.62717 7.57092H10.561C11.1924 7.57092 11.7062 8.08473 11.7062 8.71616V11.2419C11.7124 11.8733 11.1986 12.3871 10.561 12.3871Z" fill="white"/>
</svg>
