<svg width="15" height="13" viewBox="0 0 15 13" fill="none" xmlns="http://www.w3.org/2000/svg">
<path d="M8.80816 11.7584L8.59821 11.9969C8.24246 12.4042 7.65344 12.4042 7.29769 11.9969L2.45716 6.50539C1.31993 5.20812 1.22079 3.23605 2.23555 1.82244C2.24721 1.80499 2.25888 1.79335 2.27054 1.7759C3.62355 -0.0565541 6.65034 0.292485 7.61844 2.32273L7.95087 3.02663L8.28911 2.32273C9.25721 0.292485 12.284 -0.0507368 13.637 1.7759C13.6487 1.79336 13.6603 1.80499 13.672 1.82244C14.6868 3.23605 14.5876 5.20812 13.4446 6.50539M13.4388 6.50539L10.6569 9.66419C10.237 10.1412 9.43804 10.1354 9.02981 9.64674L6.77867 6.98241" stroke="#B3B3B3" stroke-width="1.11628" stroke-miterlimit="10" stroke-linecap="round" stroke-linejoin="round"/>
</svg>
