<svg width="19" height="19" viewBox="0 0 19 19" fill="none" xmlns="http://www.w3.org/2000/svg">
<path d="M15.7296 15.1317V9.38336C15.7296 5.83021 12.8509 2.9516 9.29779 2.9516C5.74464 2.9516 2.86603 5.83021 2.86603 9.38336V15.1317" stroke="#2C2C2C" stroke-width="1.1834" stroke-miterlimit="10" stroke-linecap="round" stroke-linejoin="round"/>
<path d="M3.7329 1.94568C2.47554 2.85098 1.45487 4.05804 0.771454 5.46333" stroke="#2C2C2C" stroke-width="1.1834" stroke-miterlimit="10" stroke-linecap="round" stroke-linejoin="round"/>
<path d="M14.8627 1.94568C16.1201 2.85098 17.1408 4.05804 17.8242 5.46333" stroke="#2C2C2C" stroke-width="1.1834" stroke-miterlimit="10" stroke-linecap="round" stroke-linejoin="round"/>
<path d="M10.7592 2.88944V2.46638C10.7592 1.65871 10.1053 1.00488 9.29768 1.00488C8.49001 1.00488 7.83618 1.65871 7.83618 2.46638V2.88944" stroke="#2C2C2C" stroke-width="1.1834" stroke-miterlimit="10" stroke-linecap="round" stroke-linejoin="round"/>
<path d="M11.3304 15.6139V16.2026C11.3304 17.3239 10.4192 18.2351 9.2979 18.2351C8.17663 18.2351 7.26541 17.3239 7.26541 16.2026V15.6139" stroke="#2C2C2C" stroke-width="1.1834" stroke-miterlimit="10" stroke-linecap="round" stroke-linejoin="round"/>
<path d="M0.821564 15.1317H17.7767" stroke="#2C2C2C" stroke-width="1.1834" stroke-miterlimit="10" stroke-linecap="round" stroke-linejoin="round"/>
</svg>
