<svg width="18" height="20" viewBox="0 0 18 20" fill="none" xmlns="http://www.w3.org/2000/svg">
<path d="M16.9188 19.0333H1.08163C0.509829 19.0333 0.0754817 18.5192 0.168949 17.9529L0.996409 13.0733L2.10702 6.5059C2.18124 6.06331 2.56611 5.73617 3.01695 5.73617H14.9835C15.4343 5.73617 15.8192 6.06331 15.8934 6.5059L17.8315 17.9529C17.925 18.5164 17.4906 19.0333 16.9188 19.0333Z" fill="#FF4200"/>
<path d="M14.9067 5.73617C12.7185 10.1621 8.16056 13.2053 2.88792 13.2053C2.24464 13.2053 1.61511 13.1613 0.996582 13.0733L2.10719 6.5059C2.18142 6.06331 2.56628 5.73617 3.01712 5.73617H14.9067Z" fill="#FF8155"/>
<path d="M5.88135 6.77797V3.38017C5.88135 2.04689 6.96172 0.966516 8.295 0.966516H9.71075C11.044 0.966516 12.1244 2.04689 12.1244 3.38017V6.77797" stroke="#FF4200" stroke-width="1.64942" stroke-miterlimit="10" stroke-linecap="round"/>
<path d="M13.0342 10.2225V12.3173C13.0342 14.1234 11.5717 15.5859 9.76563 15.5859H8.23442C6.42831 15.5859 4.96582 14.1234 4.96582 12.3173V10.2225" stroke="white" stroke-width="0.82471" stroke-miterlimit="10" stroke-linecap="round"/>
<path d="M7.04443 11.2012H10.9563" stroke="white" stroke-width="0.82471" stroke-miterlimit="10" stroke-linecap="round"/>
</svg>
