<svg width="18" height="18" viewBox="0 0 18 18" fill="none" xmlns="http://www.w3.org/2000/svg">
<path d="M12.8029 5.16757H15.6568C16.4043 5.16757 17.0159 5.8008 17.0159 6.58781V16.819C17.0159 16.8733 16.9649 16.9095 16.9225 16.8824L14.4932 15.6159C14.2978 15.5164 14.094 15.4621 13.8816 15.4621H6.42389C5.67642 15.4621 5.06486 14.8289 5.06486 14.0419V6.58781C5.06486 5.8008 5.67642 5.16757 6.42389 5.16757H12.7944M2.94985 12.5221H2.70352C2.06647 12.5221 1.54834 11.9793 1.54834 11.3099V1.96522C1.54834 1.2958 2.06647 0.753029 2.70352 0.753029H11.6307C12.2677 0.753029 12.7859 1.2958 12.7859 1.96522V2.9603M7.98674 10.3148H8.22457M10.7983 10.3148H11.0361M13.6097 10.3148H13.8476" stroke="#B3B3B3" stroke-width="1.13253" stroke-miterlimit="10" stroke-linecap="round"/>
</svg>
