<svg width="19" height="20" viewBox="0 0 19 20" fill="none" xmlns="http://www.w3.org/2000/svg">
<path d="M5.69257 13.1161V15.2703C5.69257 16.0963 6.36203 16.7667 7.18897 16.7667H13.9736C14.2031 16.7667 14.4253 16.8476 14.6017 16.9952L17.051 19.0513C17.3236 19.2807 17.7403 19.0864 17.7403 18.7301V6.18027C17.7403 5.35423 17.0708 4.68387 16.2439 4.68387H12.9712" stroke="#292929" stroke-width="1.12" stroke-miterlimit="10"/>
<path d="M13.5876 9.43131V11.5855C13.5876 12.4115 12.9181 13.0819 12.0912 13.0819H4.76665C4.53719 13.0819 4.31494 13.1629 4.13857 13.3104L1.68926 15.3665C1.41662 15.596 1 15.4016 1 15.0453V2.4964C1 1.67037 1.66947 1 2.4964 1H4.41122H13.5876V9.43131Z" stroke="#292929" stroke-width="1.12" stroke-miterlimit="10"/>
<path d="M4.22046 4.68387H10.7208" stroke="#292929" stroke-width="1.12" stroke-miterlimit="10" stroke-linecap="round" stroke-linejoin="round"/>
<path d="M4.22046 8.5531H10.7208" stroke="#292929" stroke-width="1.12" stroke-miterlimit="10" stroke-linecap="round" stroke-linejoin="round"/>
</svg>
