<svg width="20" height="20" viewBox="0 0 20 20" fill="none" xmlns="http://www.w3.org/2000/svg">
<path d="M12.848 16.4767C12.8473 15.983 12.9795 15.4983 13.2305 15.0731L6.92159 11.3987C6.67754 11.8178 6.32801 12.1655 5.9075 12.4072C5.48699 12.6488 5.01044 12.7761 4.52543 12.7759C3.78944 12.7756 3.08331 12.4832 2.56289 11.9628C2.04246 11.4424 1.75029 10.7365 1.75 10.0005C1.75029 9.26462 2.04297 8.55902 2.56342 8.03877C3.08388 7.51852 3.78954 7.22615 4.52543 7.22615C5.0106 7.22593 5.48734 7.353 5.90803 7.59467C6.32873 7.83634 6.67844 8.18416 6.92266 8.60338L13.2262 4.92361C12.9781 4.49946 12.8473 4.01677 12.848 3.5254C12.8481 3.16079 12.9203 2.7997 13.0599 2.46289C13.1996 2.12609 13.404 1.82004 13.6619 1.56232C13.9198 1.3046 14.2261 1.10025 14.563 0.960857C14.8999 0.821459 15.2609 0.749825 15.6255 0.74997C15.99 0.74997 16.3508 0.821637 16.6875 0.961126C17.0242 1.10062 17.3299 1.30512 17.5875 1.56285C17.8452 1.82059 18.0496 2.12671 18.189 2.46343C18.3284 2.80015 18.4 3.16098 18.3999 3.5254C18.4 3.88976 18.3284 4.25044 18.189 4.5871C18.0496 4.92376 17.8452 5.22976 17.5875 5.48741C17.3299 5.74505 17.0242 5.94923 16.6875 6.0886C16.3509 6.22797 15.9899 6.29963 15.6255 6.29949C15.1402 6.29976 14.6634 6.17295 14.2424 5.93151C13.8214 5.69006 13.471 5.34265 13.2262 4.92361L6.92266 8.60338C7.16998 9.02739 7.30034 9.50964 7.29978 10.0005C7.3006 10.4916 7.16983 10.974 6.92159 11.3976L13.2305 15.072C13.4749 14.6538 13.8248 14.3069 14.2451 14.066C14.6654 13.8251 15.1411 13.6986 15.6255 13.6991C15.99 13.6991 16.3513 13.771 16.688 13.9105C17.0248 14.0501 17.3304 14.2547 17.5881 14.5125C17.8457 14.7704 18.0503 15.0765 18.1895 15.4134C18.3288 15.7502 18.4002 16.1111 18.3999 16.4756C18.3999 17.2114 18.1078 17.9171 17.5875 18.4374C17.0673 18.9576 16.3613 19.25 15.6255 19.25C14.8895 19.2503 14.1838 18.9582 13.663 18.4382C13.1422 17.9182 12.8488 17.2127 12.848 16.4767V16.4767Z" stroke="#1993AB" stroke-width="1.5" stroke-linecap="round"/>
</svg>
