<svg width="20" height="18" viewBox="0 0 20 18" fill="none" xmlns="http://www.w3.org/2000/svg">
<path d="M9.70417 14.7235C13.4 14.7235 16.396 11.7275 16.396 8.03169C16.396 4.33588 13.4 1.33984 9.70417 1.33984C6.00837 1.33984 3.01233 4.33588 3.01233 8.03169C3.01233 11.7275 6.00837 14.7235 9.70417 14.7235Z" stroke="#2C2C2C" stroke-width="1.11997" stroke-miterlimit="10" stroke-linecap="round" stroke-linejoin="round"/>
<path d="M3.29531 10.3108H1.31576C1.11976 9.58564 1.01337 8.82126 1.01337 8.03167C1.01337 6.8305 1.25696 5.68813 1.69655 4.64935H3.7853" stroke="#2C2C2C" stroke-width="1.11997" stroke-miterlimit="10" stroke-linecap="round" stroke-linejoin="round"/>
<path d="M16.4969 10.3108H18.4764C18.6724 9.58564 18.7788 8.82126 18.7788 8.03167C18.7788 6.8305 18.5352 5.68813 18.0956 4.64935H16.0069" stroke="#2C2C2C" stroke-width="1.11997" stroke-miterlimit="10" stroke-linecap="round" stroke-linejoin="round"/>
<path d="M13.5261 8.03168C13.5261 10.1428 11.8153 11.8536 9.70414 11.8536C7.59299 11.8536 5.88223 10.1428 5.88223 8.03168" stroke="#2C2C2C" stroke-width="1.11997" stroke-miterlimit="10" stroke-linecap="round" stroke-linejoin="round"/>
<path d="M18.7789 8.03168C18.7789 13.0408 14.7162 17.1035 9.70709 17.1035" stroke="#2C2C2C" stroke-width="1.11997" stroke-miterlimit="10" stroke-linecap="round" stroke-linejoin="round"/>
</svg>
