<svg width="15" height="18" viewBox="0 0 15 18" fill="none" xmlns="http://www.w3.org/2000/svg">
<path d="M13.2894 1.16905C13.4742 1.16905 13.6226 1.32025 13.6226 1.50504V15.5635L13.617 15.5691L12.2254 16.9775C12.0966 17.1091 11.8866 17.1091 11.755 16.9775L10.383 15.5887L9.01106 16.9775C8.88226 17.1091 8.67227 17.1091 8.54067 16.9775L7.16871 15.5887L5.79674 16.9775C5.66794 17.1091 5.45794 17.1091 5.32635 16.9775L3.95438 15.5887L2.58241 16.9775C2.45362 17.1091 2.24362 17.1091 2.11203 16.9775L0.81845 15.6671C0.756851 15.6027 0.720459 15.5187 0.720459 15.4291V1.50784C0.720459 1.32305 0.868856 1.17185 1.05365 1.17185H13.2894V1.16905Z" stroke="#2C2C2C" stroke-width="1.11997" stroke-miterlimit="10"/>
<path d="M3.34406 12.058H7.87435" stroke="#2C2C2C" stroke-width="1.11997" stroke-miterlimit="10" stroke-linecap="round" stroke-linejoin="round"/>
<path d="M3.34406 8.51047H11.2091" stroke="#2C2C2C" stroke-width="1.11997" stroke-miterlimit="10" stroke-linecap="round" stroke-linejoin="round"/>
<path d="M3.34406 4.96016H11.2091" stroke="#2C2C2C" stroke-width="1.11997" stroke-miterlimit="10" stroke-linecap="round" stroke-linejoin="round"/>
</svg>
