<svg width="26" height="26" viewBox="0 0 26 26" fill="none" xmlns="http://www.w3.org/2000/svg">
<path d="M18.0821 22.7809C17.2897 22.7809 6.77832 22.7809 6.77832 22.7809" stroke="#00A9EA" stroke-width="2.46154" stroke-miterlimit="10" stroke-linecap="round" stroke-linejoin="round"/>
<path d="M4.09814 6.3452H20.5153L19.1472 2.22235C18.8253 1.25044 17.742 0.749013 16.7948 1.13901L4.09814 6.3452Z" fill="#00A9EA"/>
<path d="M23.8025 9.17424V15.08C23.4559 14.7023 23.0597 14.3742 22.6264 14.0833C21.5864 13.3961 20.3359 13 18.9925 13C17.7483 13 16.5906 13.3404 15.6002 13.9347C14.4611 14.6219 13.5387 15.6433 12.9878 16.8628C12.6535 17.5871 12.4492 18.3857 12.3997 19.2276C12.3935 19.3514 12.3873 19.4814 12.3873 19.6114C12.3873 19.8776 12.4059 20.1376 12.4368 20.3976H3.23159C2.34017 20.3976 1.62207 19.6733 1.62207 18.7881V9.17424C1.62207 8.28901 2.34017 7.56472 3.23159 7.56472H22.1868C23.0783 7.56472 23.8025 8.28901 23.8025 9.17424Z" fill="#FF4200"/>
<path d="M22.6263 11.6319V14.0833C21.5863 13.3962 20.3358 13 18.9925 13C17.7482 13 16.5906 13.3404 15.6001 13.9347C14.461 14.6219 13.5387 15.6433 12.9877 16.8628C12.6534 17.5871 12.4491 18.3857 12.3996 19.2276H5.68913C5.68913 17.6243 4.39533 16.3304 2.79199 16.3304V11.6319C4.39533 11.6319 5.68913 10.3381 5.68913 8.73473H19.7353C19.7353 10.3381 21.0291 11.6319 22.6263 11.6319Z" fill="#FC781F"/>
<path d="M15.5998 13.9347C14.4607 14.6219 13.5383 15.6433 12.9874 16.8628C12.8945 16.869 12.8017 16.8752 12.7088 16.8752C11.1117 16.8752 9.81787 15.5752 9.81787 13.978C9.81787 12.3871 11.1117 11.0871 12.7088 11.0871C14.2936 11.0871 15.575 12.3623 15.5998 13.9347Z" fill="#FF4200"/>
<path d="M18.9922 24.9971C21.9666 24.9971 24.3779 22.5858 24.3779 19.6114C24.3779 16.6369 21.9666 14.2257 18.9922 14.2257C16.0177 14.2257 13.6064 16.6369 13.6064 19.6114C13.6064 22.5858 16.0177 24.9971 18.9922 24.9971Z" fill="#25258C"/>
<path d="M18.5962 16.4543V19.89H21.7038" stroke="white" stroke-width="1.84615" stroke-miterlimit="10" stroke-linecap="round" stroke-linejoin="round"/>
</svg>
