<svg width="20" height="21" viewBox="0 0 20 21" fill="none" xmlns="http://www.w3.org/2000/svg">
<g clip-path="url(#clip0_2453_23327)">
<path d="M2.13647 15.0612V15.6864C2.13647 17.6023 3.62934 19.1553 5.46453 19.1553H15.3251C17.1602 19.1553 18.6531 17.6023 18.6531 15.6864V4.62418C18.6531 2.70821 17.1602 1.15527 15.3251 1.15527H5.46453C3.62934 1.15527 2.13647 2.70821 2.13647 4.62418V5.24939" stroke="#2C2C2C" stroke-width="1.2" stroke-miterlimit="10" stroke-linecap="round"/>
<path d="M1.34717 10.9725L4.38996 7.98676C4.88441 7.50181 5.67363 7.50181 6.16809 7.98676L9.21088 10.9725" stroke="#6E6E6E" stroke-width="1.2" stroke-miterlimit="10" stroke-linecap="round"/>
<path d="M16.2949 8.65254L14.821 7.20721C14.3266 6.72227 13.5278 6.72227 13.0429 7.20721L6.06348 14.0535" stroke="#9B9B9B" stroke-width="1.2" stroke-miterlimit="10" stroke-linecap="round"/>
</g>
<defs>
<clipPath id="clip0_2453_23327">
<rect width="20" height="20" fill="white" transform="translate(0 0.155273)"/>
</clipPath>
</defs>
</svg>
