<svg width="20" height="20" viewBox="0 0 20 20" fill="none" xmlns="http://www.w3.org/2000/svg">
<g clip-path="url(#clip0_774_5802)">
<path d="M15.0683 6.25659L18.2537 10.0594C18.5105 10.3628 18.6531 10.7572 18.6531 11.1719V17.3615C18.6531 18.2717 17.9875 18.9999 17.1697 18.9999H14.6499C13.8322 18.9999 13.1666 18.2616 13.1666 17.3615V14.0846C13.1666 13.1744 12.501 12.4462 11.6832 12.4462H8.30762" stroke="#2C2C2C" stroke-width="1.2" stroke-miterlimit="10"/>
<path d="M1.34717 13.761V11.182C1.34717 10.7674 1.4898 10.3729 1.74653 10.0695L8.91611 1.52339C9.50565 0.825538 10.4946 0.825538 11.0841 1.52339L15.363 6.62072" stroke="#9B9B9B" stroke-width="1.2" stroke-miterlimit="10" stroke-linecap="round"/>
<path d="M8.30755 12.4463C7.4898 12.4463 6.82419 13.1846 6.82419 14.0847V17.3616C6.82419 18.2718 6.15858 19 5.34083 19H2.83053C2.01278 19 1.34717 18.2617 1.34717 17.3616V13.751" stroke="#6E6E6E" stroke-width="1.2" stroke-miterlimit="10" stroke-linecap="round"/>
</g>
<defs>
<clipPath id="clip0_774_5802">
<rect width="20" height="20" fill="white"/>
</clipPath>
</defs>
</svg>
