<svg width="20" height="21" viewBox="0 0 20 21" fill="none" xmlns="http://www.w3.org/2000/svg">
<g clip-path="url(#clip0_2453_23324)">
<path d="M12.1498 13.2052H10.3998H7.9998C7.44752 13.2052 6.9998 13.6529 6.9998 14.2052V18.7052C6.9998 19.2575 6.55209 19.7052 5.9998 19.7052H2.5498C1.99752 19.7052 1.5498 19.2575 1.5498 18.7052V11.5567C1.5498 11.3292 1.62735 11.1085 1.76965 10.9311L9.28309 1.56136C9.67905 1.06758 10.4284 1.06121 10.8327 1.5482L18.6192 10.9275C18.7682 11.107 18.8498 11.3329 18.8498 11.5662V18.7052C18.8498 19.2575 18.4021 19.7052 17.8498 19.7052H14.1498C13.5975 19.7052 13.1498 19.2575 13.1498 18.7052V14.2052C13.1498 13.6529 12.7021 13.2052 12.1498 13.2052Z" fill="#25258C"/>
<path fill-rule="evenodd" clip-rule="evenodd" d="M1.1499 13.1667V12.8012C1.1499 12.5777 1.22479 12.3606 1.36261 12.1846L9.52566 1.76135C9.92175 1.2556 10.6851 1.24915 11.0897 1.74813L13.6951 4.96149C12.2851 9.77521 7.92485 13.2828 2.76452 13.2828C2.21643 13.2828 1.67736 13.2432 1.1499 13.1667Z" fill="#3737B1"/>
<path d="M1.49707 14.4163V11.8373C1.49707 11.4226 1.6397 11.0282 1.89644 10.7248L9.06601 2.17866C9.65555 1.48081 10.6445 1.48081 11.234 2.17866L15.5129 7.27599" stroke="#FF4200" stroke-width="1.2" stroke-miterlimit="10" stroke-linecap="round"/>
<path d="M15.2182 6.91187L18.4036 10.7146C18.6604 11.018 18.803 11.4125 18.803 11.8271V18.0168C18.803 18.927 18.1374 19.6552 17.3196 19.6552H14.7998C13.9821 19.6552 13.3165 18.9169 13.3165 18.0168V14.7399C13.3165 13.8297 12.6509 13.1015 11.8331 13.1015H8.45752" stroke="#FF4200" stroke-width="1.2" stroke-miterlimit="10" stroke-linecap="round"/>
<path d="M8.45745 13.1016C7.6397 13.1016 6.97409 13.8399 6.97409 14.74V18.0168C6.97409 18.9271 6.30848 19.6553 5.49073 19.6553H2.98043C2.16268 19.6553 1.49707 18.917 1.49707 18.0168V14.4062" stroke="#00A9EA" stroke-width="1.2" stroke-miterlimit="10" stroke-linecap="round"/>
<circle cx="10.25" cy="8.45537" r="1.7" fill="white"/>
</g>
<defs>
<clipPath id="clip0_2453_23324">
<rect width="20" height="20" fill="white" transform="translate(0 0.155273)"/>
</clipPath>
</defs>
</svg>
