<svg width="20" height="20" viewBox="0 0 20 20" fill="none" xmlns="http://www.w3.org/2000/svg">
<path d="M18.0241 10.4698L11.5 17.7353C10.82 18.5038 9.58333 17.9889 9.3 17.7353C8 16.3853 5.03999 13.2953 3.59999 11.7353C1.79999 9.78533 0.499994 7.73533 1.34999 5.03533C2.19999 2.33533 4.59999 1.68533 6.44999 2.08533C7.3833 2.28712 8.35239 3.06951 9.09145 3.83315C9.60036 4.35898 10.5283 4.31195 10.9747 3.73207C11.6071 2.91047 12.4177 2.08683 13.15 1.93533C14.6 1.63533 16.75 2.18533 18.3 4.33533C19.4991 5.99855 18.6753 9.22957 18.1524 10.285C18.1189 10.3526 18.0746 10.4137 18.0241 10.4698Z" fill="#25258C"/>
<path fill-rule="evenodd" clip-rule="evenodd" d="M6.73717 15.0602C10.4289 13.4027 13 9.6942 13 5.38523C13 4.2789 12.8305 3.21216 12.5161 2.20956C11.9737 2.55217 11.4283 3.14259 10.9747 3.73197C10.5283 4.31184 9.60036 4.35888 9.09145 3.83305C8.35239 3.06941 7.3833 2.28702 6.44999 2.08522C4.59999 1.68522 2.19999 2.33522 1.34999 5.03522C0.499994 7.73522 1.79999 9.78522 3.59999 11.7352C4.37212 12.5717 5.58125 13.848 6.73717 15.0602Z" fill="#3737B1"/>
<path d="M11.1975 17.2787L10.9105 17.6053C10.4058 18.1694 9.58433 18.1694 9.0895 17.6053L2.3004 10.0442C0.69714 8.25293 0.558587 5.54124 1.98371 3.5916C2.0035 3.57181 2.01339 3.55201 2.03318 3.53222C3.93334 1.00857 8.17901 1.48361 9.53486 4.28437L9.9901 5.25424" stroke="#FF4200" stroke-width="1.2" stroke-miterlimit="10" stroke-linecap="round"/>
<path d="M9.99023 5.25424L10.4653 4.28437C11.8211 1.48361 16.0668 1.00857 17.9669 3.53222C17.9867 3.55201 17.9966 3.57181 18.0164 3.5916C19.4415 5.54124 19.303 8.25293 17.6997 10.0442" stroke="#FF4200" stroke-width="1.2" stroke-miterlimit="10" stroke-linecap="round"/>
<path d="M17.6897 10.0442L13.7806 14.3987C13.1967 15.0519 12.0684 15.042 11.4944 14.3789L8.3374 10.7073" stroke="#00A9EA" stroke-width="1.2" stroke-miterlimit="10" stroke-linecap="round"/>
<path d="M17.4999 6.73535C17.4999 4.94043 16.0448 3.48535 14.2499 3.48535C13.4493 3.48535 12.7163 3.77483 12.1499 4.25484" stroke="white" stroke-width="1.2" stroke-linecap="round"/>
</svg>
