<svg width="20" height="21" viewBox="0 0 20 21" fill="none" xmlns="http://www.w3.org/2000/svg">
<path d="M11.1975 17.4772L10.9105 17.8038C10.4058 18.3679 9.58433 18.3679 9.0895 17.8038L2.3004 10.2427C0.69714 8.45141 0.558587 5.73973 1.98371 3.79009C2.0035 3.77029 2.01339 3.7505 2.03318 3.73071C3.93334 1.20706 8.17901 1.6821 9.53486 4.48285L9.9901 5.45273" stroke="#2C2C2C" stroke-width="1.2" stroke-miterlimit="10" stroke-linecap="round"/>
<path d="M17.6897 10.2427L13.7806 14.5972C13.1967 15.2504 12.0684 15.2405 11.4944 14.5774L8.3374 10.9058" stroke="#9B9B9B" stroke-width="1.2" stroke-miterlimit="10" stroke-linecap="round"/>
<path d="M9.99023 5.45273L10.4653 4.48285C11.8211 1.6821 16.0668 1.20706 17.9669 3.73071C17.9867 3.7505 17.9966 3.77029 18.0164 3.79009C19.4415 5.73973 19.303 8.45141 17.6997 10.2427" stroke="#6E6E6E" stroke-width="1.2" stroke-miterlimit="10" stroke-linecap="round"/>
</svg>
